<?xml version="1.0" encoding="UTF-8" standalone="no"?>
<svg
   xmlns:dc="http://purl.org/dc/elements/1.1/"
   xmlns:cc="http://creativecommons.org/ns#"
   xmlns:rdf="http://www.w3.org/1999/02/22-rdf-syntax-ns#"
   xmlns:svg="http://www.w3.org/2000/svg"
   xmlns="http://www.w3.org/2000/svg"
   xmlns:sodipodi="http://sodipodi.sourceforge.net/DTD/sodipodi-0.dtd"
   xmlns:inkscape="http://www.inkscape.org/namespaces/inkscape"
   id="Layer_1"
   data-name="Layer 1"
   viewBox="0 0 692.672 700.154"
   version="1.1"
   sodipodi:docname="loginLogo.svg"
   inkscape:version="0.92.5 (2060ec1f9f, 2020-04-08)">
  <metadata
     id="metadata114">
    <rdf:RDF>
      <cc:Work
         rdf:about="">
        <dc:format>image/svg+xml</dc:format>
        <dc:type
           rdf:resource="http://purl.org/dc/dcmitype/StillImage" />
      </cc:Work>
    </rdf:RDF>
  </metadata>
  <defs
     id="defs112" />
  <sodipodi:namedview
     pagecolor="#ffffff"
     bordercolor="#666666"
     borderopacity="1"
     objecttolerance="10"
     gridtolerance="10"
     guidetolerance="10"
     inkscape:pageopacity="0"
     inkscape:pageshadow="2"
     inkscape:window-width="1366"
     inkscape:window-height="713"
     id="namedview110"
     showgrid="false"
     inkscape:zoom="0.37491752"
     inkscape:cx="344.69037"
     inkscape:cy="538.40626"
     inkscape:window-x="0"
     inkscape:window-y="30"
     inkscape:window-maximized="1"
     inkscape:current-layer="Ink"
     showguides="false"
     inkscape:snap-bbox="true" />
  <title
     id="title90">1</title>
  <g
     id="Character_petting"
     data-name="Character/petting">
    <g
       id="Ink"
       transform="translate(-9.3353858,1.3336267)">
      <path
         id="ink-shape"
         d="m 652.037,673.629 a 129.3,129.3 0 0 0 -13.4,5.4 c -5.1,2.1 -8.6,2.5 -14.1,2.5 -21.4,0 -42.5,1.1 -63.9,1.5 -5.8,0.1 -11.8,0.2 -17.6,0.1 -2.4,0 -4.7,-0.3 -7,-0.5 -1.5,-0.1 -8.1,0.8 -9,0.3 -2.5,-1.5 -1,-11.1 -1.3,-14.2 a 59.588,59.588 0 0 0 -3.8,-15.5 c -6.8,-18 -18.1,-35.5 -32.5,-48.4 19.4,-8.1 40.6,-18.9 62.1,-14.1 8.2,1.8 19.1,4.3 23.3,12.2 4.5,8.5 8.5,17.8 13.6,25.9 5.8,9.1 11.9,16.8 20.2,23.6 3.3,2.7 19.9,19.2 17.4,6.4 -0.8,-4.1 -3.8,-7.9 -6.2,-11.2 -1.2,-1.7 -7.7,-7.3 -6.7,-9.2 1.1,-2.2 12.9,-3.8 15.5,-4.5 5.2,-1.4 10.4,-3 15.6,-4.5 -1.9,3.5 -12.1,16.9 -5.6,20.4 2.4,1.3 8.6,-3.2 11.2,-4 4.5,-1.3 8.6,-0.5 13,0.9 -0.1,2.2 -4.4,2.2 -5.8,3.7 -2.1,2.2 -3.5,8 -1.9,10.6 3,4.8 14.7,-0.1 19.9,1.7 -5.9,6 -15.1,8.4 -23,10.9 z m -291.6,-199.1 c 0.1,0.1 0,0.3 -0.8,0.9 -0.2,-0.8 -0.6,-0.9 -1.1,-0.7 0.4,-0.4 0.7,-0.6 1.1,0.7 a 3.256,3.256 0 0 0 0.8,-0.9 z m 1.8,-2.6 a 0.857,0.857 0 0 1 -0.9,0.7 c 0,-0.1 0,-0.2 0.1,-0.2 0.3,-1 0.8,-0.8 0.6,-2.7 a 1.02,1.02 0 0 1 0.2,0.9 1.052,1.052 0 0 1 0,1.3 z m -51.9,87.3 c 0.5,-1.2 0.6,-2.6 1.3,-3.7 -0.7,1.1 -0.7,2.5 -1.3,3.7 z m 200.7,122.9 c -7.7,-0.3 -15.3,-0.2 -23,0.2 -16.5,0.7 -33.1,0.8 -49.6,2.2 a 211.94,211.94 0 0 1 -23.9,0.6 c -7.1,-0.2 -14.2,0 -21.2,-0.6 -7.7,-0.7 -15,-2.8 -22.8,-2.9 -7.5,-0.1 -16.4,-1 -23.6,0.1 -1.3,0.2 -1.9,1 -3.4,1.2 -2,0.3 -4.9,-0.6 -7,-0.7 -3.7,-0.2 -7.7,0.2 -11.3,-0.7 a 21.9,21.9 0 0 1 -3.3,-1.2 31.335,31.335 0 0 0 -4.1,-0.9 c 3.4,-1.3 -4.2,-3.9 -4.8,-4 -0.2,0.5 0.2,1.2 0.7,1.9 -1.9,-1.5 0.1,-0.9 -3,-2.4 a 22.742,22.742 0 0 0 -5.3,-1.2 13.6,13.6 0 0 0 -2.9,0 1.538,1.538 0 0 0 0.4,-0.6 c 1.1,-2.2 -2.2,-4.7 -4,-3.2 a 18.144,18.144 0 0 0 1,2 l -0.1,-0.1 c -0.7,-0.8 -1.9,-2.8 -3.2,-4.1 1.6,-0.9 -0.4,-2.1 -1.1,-3.3 -0.5,0.3 -1.1,0.5 -1.3,0.9 0.4,-0.9 1.5,-1.7 0.8,-3.4 a 4.448,4.448 0 0 0 -1.2,-1.7 2.56,2.56 0 0 0 1.9,0.8 8.382,8.382 0 0 1 -1.6,-3.3 c -0.2,-1 1.1,-1.9 -0.2,-2.8 0,-0.9 0.6,-5.2 -1.7,-3.7 v 0 c 1.5,-4.5 4,-9.2 5.9,-13.6 4.4,-10.3 8.9,-20.7 13.4,-31 7.6,-16.9 15.4,-33.8 24.1,-50.3 8.6,-16.3 18,-32.1 26.2,-48.7 7.8,-16 17,-31.3 24.9,-47.2 3.7,-7.5 8.7,-13.7 10,-22.4 0.4,-2.8 0.5,-8.7 -3.7,-7.7 -2.8,0.7 -6.7,7.7 -8.5,9.9 -1.6,-2.2 -10.7,-15.2 -13.1,-7.5 -2.1,6.6 11,9.5 5.8,16.2 -0.5,0.7 -2.7,1.3 -3.4,1.9 -1.4,1.2 -2.6,3.3 -3.7,4.7 -2.4,3.3 -4.4,6.8 -6.6,10.1 -0.4,0.6 -2,2.1 -2.1,2.8 -0.1,0.4 0.3,0.8 0.5,1.2 -1.8,1.6 -4.1,3 -4.5,5.6 0.1,0.1 0.2,0.1 0.4,0 -1.7,1.8 -3.8,6 -4.1,6.5 -2.3,3.3 -4.5,6.8 -6.7,10.2 -1.2,1.9 -3.3,4.1 -4,6.2 -0.2,0.7 0.5,2 -0.2,2.7 -1.7,1.8 -3.4,1.4 -4.7,5 -0.5,1.4 -0.6,3.4 -1.4,4.6 -1.3,2 -3.2,2.9 -4.4,5 -2.3,4 -5.1,8.4 -6.6,12.4 v 0 c -0.1,-0.3 -0.1,-0.7 -0.2,-1 -0.8,1.5 -1.7,3 -2.5,4.5 a 3.927,3.927 0 0 0 2.6,-1.3 2.544,2.544 0 0 1 -0.2,0.7 6.028,6.028 0 0 1 -2.3,0.6 c -0.6,0.9 -1.1,1.9 -1.6,2.8 a 46.318,46.318 0 0 0 -1.4,5.7 6.4,6.4 0 0 0 -0.3,-1.7 c -1.1,2 -2.1,4.1 -3.2,6.1 1.9,-1.5 1.8,-1.7 3.6,-1.8 -2.3,0 -5.8,3.3 -6.1,6.4 -0.1,0.5 0.3,1.1 0.5,1.6 h -0.2 c -2.4,-0.2 -1.7,0.3 -2.6,2.3 a 14.158,14.158 0 0 0 3.1,-1.5 0.846,0.846 0 0 1 0,0.7 c -0.6,0.9 -5.5,0.3 -2.3,2.4 -2.6,-1.7 -3.9,4 -3,5.9 -0.7,1 -1.5,1.9 -2.3,2.9 a 25,25 0 0 0 -4.2,6.8 c -2.1,4.8 -4.7,9.5 -7,14.1 a 39.814,39.814 0 0 1 -3,4.9 c -1.9,2.9 -1.6,2.2 -0.1,5.4 -0.6,-0.2 -1.4,0.3 -2.2,0.9 a 1.59,1.59 0 0 1 2.2,-0.9 c -1.9,-4 -3.6,0.9 -4.5,3.2 h 0.1 c -0.1,0.2 -0.2,0.3 -0.3,0.5 v 0 c -0.9,1.9 -2,3 -1.2,5 0.2,-1.1 1.1,-1.9 1.5,-2.9 -0.5,2.3 -3,5 -3.8,6.6 -0.6,1.3 -0.7,2.6 -1.5,4 a 24.652,24.652 0 0 0 -1.9,3.6 c -2.7,7.1 -4,15.1 -5.7,22.6 a 168.191,168.191 0 0 0 -3.3,27.3 c -0.1,2.6 -0.2,5 0.8,7.5 0.1,0.4 1.6,2.3 1.6,3 -0.2,3.7 -7.1,2.9 -9.8,2.8 -4.2,-0.2 -7.1,0.5 -11.2,1.1 -3.8,0.5 -7.4,0.2 -11.2,1.2 -6.3,1.5 -15.8,4 -21.9,0.6 -3,-1.6 -6.7,-6.3 -8.8,-9 -2.6,-3.3 -3.5,-6.6 -4,-10.7 -0.8,-7.1 -0.9,-14.9 1.6,-21.7 11.4,-31.5 31.1,-60.1 48,-88.7 15.9,-26.9 33.7,-52.4 49.6,-79.2 8.4,-14.2 18.5,-28.2 28.6,-41.3 10.2,-13.4 17.5,-27.9 24.8,-43.1 7.5,4 15.4,8 23.8,9.8 4.8,1 9.5,0.7 14.3,1 3.5,0.2 6.5,1.1 10.1,1.2 15.8,0.4 34,-1.5 49.1,-6.2 a 75.2,75.2 0 0 0 10.3,-3.9 c 4.3,-2.1 5.5,-2.9 5.7,1.9 0.5,9.3 2,18.3 2.7,27.5 0.7,9 2.5,17.8 4.1,26.7 0.8,4.5 1.7,9 2.3,13.5 0.5,3.4 2,8.2 1.4,11.6 -0.7,3.8 -4.2,7.6 -6.3,10.8 -2.1,3.3 -4.2,6.5 -6.2,9.8 a 179.775,179.775 0 0 1 -12.4,17.6 c -8.5,10.4 -15.8,21.4 -23.8,32.2 -8.6,11.5 -15.7,23.8 -24.1,35.4 -4.4,6.1 -9,11.9 -11.9,18.8 -2.4,5.7 -7.3,11 -10.2,16.6 -3.9,7.4 -8.9,14.2 -12.7,21.7 -2.7,5.2 -7.9,10.5 -8.5,16.6 -0.9,10.2 8.7,0 11,-2.8 3,-3.8 6.3,-10.4 10.8,-12.5 3.2,-1.5 7.9,-1.3 11.4,-2.5 3.7,-1.2 7.2,-2.5 10.9,-3.6 7.2,-2.2 14.1,-5.2 21.1,-7.9 7.2,-2.8 14.5,-5.7 21.6,-8.8 a 36.4,36.4 0 0 1 9.6,-2.8 c 1.5,-0.3 6.9,-2.8 8.1,-2.6 2,0.4 4.8,6.2 6.3,7.8 2.3,2.3 5,4.2 7.2,6.7 a 171.787,171.787 0 0 1 12.6,15.6 c 8.3,12 16.1,25.1 19.1,39.6 1,6.4 -0.6,6.8 -6.9,6.6 z m -216.8,-15.7 a 0.365,0.365 0 0 1 -0.1,-0.3 c 0,0.1 0.1,0.2 0.1,0.3 1,-0.6 1.2,-0.3 1.4,0.2 a 1.465,1.465 0 0 0 -1.4,-0.2 z m -2.3,-6.7 c 0,-0.2 -0.1,-0.3 -0.1,-0.5 a 0.9,0.9 0 0 1 0.1,0.5 1.063,1.063 0 0 1 1.4,0 1.2,1.2 0 0 0 -1.4,0 z m 1,-4.4 c 0.3,0 0.6,-0.2 1,-0.6 -0.3,0.3 -0.6,0.7 -0.9,1 v -0.1 c 0.1,-0.1 0,-0.2 -0.1,-0.3 z m -98.3,-36.7 c -2.2,5.3 -3.2,11.1 -5.1,16.5 a 50.091,50.091 0 0 0 -2.4,12.6 c 1.3,1 1.3,1.8 -0.1,2.6 a 26.2,26.2 0 0 0 -0.1,2.8 18.628,18.628 0 0 0 0.9,7.8 40.439,40.439 0 0 0 4.8,10.8 c -13.1,4.4 -28,5.7 -41.7,5.4 -7.4,-0.2 -15.7,-0.2 -23,1.6 -7.8,2 -14.6,1.1 -22.6,0.5 1.2,-2.4 5.6,-6.3 7.9,-7.9 1.2,-0.8 3,-1 3.9,-1.9 1.2,-1.3 1.4,-3.9 1.9,-5.6 a 324.548,324.548 0 0 0 7.3,-33.6 c 3.4,-20 5,-40.5 6,-60.7 0.1,-1.7 1,-3.6 0.9,-5.2 -0.1,-2.1 -0.7,-2.8 -0.5,-4.9 0.1,-1.4 1.8,-3.3 1.7,-4.5 -0.1,-0.8 -2,-0.1 -1.9,-1.6 0.2,-2.3 3.2,-5.4 3.9,-7.5 0.3,-0.9 -0.8,-1.9 -0.8,-2.9 0,0.3 0.8,-3.2 0.8,-3.3 0.2,-1 1.2,-1.4 1.1,-2.6 0,-1.1 -1.7,-2.5 -0.8,-3.7 0.9,-1.2 2.7,0.6 3.3,-0.4 0.6,-1.1 -2.1,-5.1 -1.8,-6.8 0.5,-3.1 2.7,-6.4 3.5,-9.6 0.3,-1.2 -0.2,-2.6 0.8,-3.7 1.7,-1.8 3.1,0 5.5,-0.6 -2.4,-2 -2.9,-4 -2.2,-7 0.6,-2.4 1.7,-5 4.3,-2.6 -0.3,-3.2 -0.7,-3.5 1.5,-6.1 a 47.723,47.723 0 0 1 6.8,-6.7 c 3.5,-2.6 9.1,-3.9 13.2,-4.2 4.5,-0.3 10.1,2.1 13.5,5.5 4.2,4.2 9.5,7.2 14.3,11.2 5,4.2 9.4,9.3 14.2,13.8 1,0.9 2.8,3.5 4.4,3.1 2.5,-0.7 0.5,-4.5 -0.1,-6.1 -3.9,-11.8 -10.9,-23.8 -20.6,-31.8 -5,-4.2 -9.9,-9.4 -15.7,-12.5 -4.7,-2.5 -8.3,-2.1 -13.3,-2.2 -4.3,-0.1 -5.1,-0.4 -8.9,1.4 a 84.6,84.6 0 0 0 -7.9,4.1 43.384,43.384 0 0 0 -11.2,9.2 c -8,10 -11.1,22.7 -14.2,34.8 a 177.136,177.136 0 0 0 -6.2,40.3 c -0.4,14.1 -1.1,28 -2.5,42.1 -0.7,7.3 -1.6,14.6 -2.5,21.9 -0.9,6.7 -0.9,13.9 -2.3,20.5 -1.7,-2.5 -2.2,-4.4 -3.2,-7.1 -0.6,-1.8 -1.3,-1.7 -2.2,-3.1 a 39.033,39.033 0 0 1 -5.1,-11.6 c -0.5,-2.1 0,-3.2 -0.9,-5.1 -0.3,-0.6 -1.7,-0.1 -2,-1 -0.2,-0.7 0.7,-1.2 0.7,-1.4 -0.1,-0.5 1.3,-1.1 0.1,-2.7 -1.7,-2.3 -0.9,0.6 -1.8,0.5 -0.8,0 1.6,-8 1.3,-9.2 -0.1,-0.4 -1.4,-0.5 -1.5,-0.8 -0.3,-1.1 -0.3,-2.8 -0.6,-4.1 -0.8,-3 -1.9,-4.3 -2,-7.7 -0.1,-4.6 -1.8,-7.8 -2.6,-12.2 -0.2,-0.8 0.8,-1.8 0.6,-2.5 -0.4,-1.5 -1.4,-2.8 -1.9,-4.4 -0.8,-3 0.3,-7.3 0,-9.7 -0.2,-2.2 -0.8,-5.6 -1.2,-8.3 -0.6,-4.4 0.5,-2.9 2.4,-5.7 -2.6,-0.8 -2.3,-0.1 -3.1,-2.9 -1,-3.3 -0.9,-5.2 2.1,-3.4 -0.8,-1.9 -2.2,-4.3 -2.6,-6.4 -0.3,-1.9 0.4,-3.7 0.2,-5.6 -0.5,-5.2 -2.2,-8 0.8,-13 -3.8,-1.9 -2.1,-8.6 -2.7,-12.3 -0.6,-4 -2.2,-7.7 0.8,-10.4 -3.1,-2.2 -1.9,-8.5 -1.8,-11.9 0,-1.5 0.5,-4.2 0.4,-5.6 -0.1,-1 -0.7,-1.6 -0.9,-2.7 -0.7,-4.1 0.8,-8.2 -0.1,-12.3 a 84.837,84.837 0 0 1 -1.5,-13.1 c -0.3,-4.4 -1,-9 -1.3,-13.5 -0.2,-3.3 -1.5,-7 -0.9,-10.4 0,-0.3 0.8,-2.7 0.9,-2.2 0,-0.9 -0.7,-2 -0.7,-2.5 a 108.146,108.146 0 0 1 -0.1,-11.4 v 0 a 2.026,2.026 0 0 0 0.8,-1.9 c 3.8,-0.4 7.9,0.6 11.7,0.7 4.1,0.1 8.2,-0.1 12.2,-0.3 2.6,-0.1 8.3,-1.4 10.3,0.8 1.4,1.6 0.5,9.8 0.6,11.9 0.1,2.5 1.4,6.5 -0.1,8.7 -0.9,1.4 -3,1.9 -4,3.4 a 14.638,14.638 0 0 0 -1.5,3.4 24.673,24.673 0 0 0 -1.3,9.3 c 0.7,14.7 12.6,21.5 25.8,15.6 11.6,-5.2 14.7,-20.8 4.8,-29.6 -2.3,-2.1 -4.8,-2.6 -7.8,-3.1 -1.9,-0.3 -7.1,-0.1 -8.3,-1.5 -1.2,-1.3 -0.9,-5.5 -1.1,-7.3 -0.2,-2.8 -1.3,-7 -0.7,-9.7 -1,-2.2 -0.3,-3.2 2,-2.9 0.7,-0.1 1.5,-0.3 2.2,-0.4 1.9,-0.3 3.7,-0.7 5.6,-0.9 3.4,-0.2 6.7,0.2 10,-0.3 3.3,-0.4 6.6,-1.3 9.9,-1.7 3.5,-0.5 7,0.1 10.5,-0.5 7.2,-1.2 15,-2.9 21.8,-5.7 1.8,-0.8 4.9,-3 6.9,-2.6 2.4,0.4 1.8,2 2.5,4.3 3.8,12.7 11.8,25.3 20.3,35.4 8,9.5 18.5,17.2 28,25.2 5.8,4.8 11.3,9.9 16.7,15.2 3.9,3.8 8.1,9.9 13.1,12.1 1.1,0 5.6,-0.5 6.4,0.4 0.9,1 0.9,1.5 0.5,2.1 1.1,-2.8 -4,-2.3 -6.9,-2.4 0.3,0.5 3.5,7 4.3,3.4 a 9.993,9.993 0 0 0 1.4,0.8 85.473,85.473 0 0 1 -8.5,14.6 c -2.3,3.3 -5.4,5.7 -7.5,9.1 -2.7,4.3 -4.9,8.8 -8.2,12.6 -6.7,7.7 -10.4,17.9 -16.3,26.4 -2.8,4.1 -4.3,7.9 -7.2,11.9 -2.3,3.2 -6,7.2 -7.3,10.9 -0.5,1.5 0,2.7 -0.9,4.1 -0.6,0.9 -2.4,1.8 -3.3,2.7 -3.4,3.5 -6.1,8.6 -8.8,12.7 -2.9,4.4 -4.8,9 -7.3,13.6 -2.6,4.5 -6.7,7.8 -8.9,12.9 z m -88.8,20.1 c -1.8,0 -2.4,0 -2.6,-0.7 a 2.2,2.2 0 0 1 -0.1,-0.9 2.2,2.2 0 0 0 0.1,0.9 c 0.2,0.8 0.8,0.8 2.6,0.7 z m 0.2,-6.6 c 0.2,0.5 -0.9,1.3 -3.9,1 3,0.4 4.1,-0.5 3.9,-1 z m -7.2,16.6 c 0.3,0.2 0.5,0.5 0.8,0.7 a 5,5 0 0 1 -0.8,-0.7 z m -18.3,34.7 c -2.4,-0.8 -8.6,-2.3 -12.7,-4.1 1.8,0.5 3.7,0.9 4.4,1.2 2.8,1 5.5,2 8.3,2.9 3.9,-14.1 18.5,-19.4 31.1,-24.6 -6,-0.3 -8.2,-5.5 -11.8,-9.2 3.6,3.7 5.8,9 11.8,9.2 -12.6,5.2 -27.2,10.6 -31.1,24.6 z m -13.7,-14.1 c -0.1,0.2 -0.3,0.5 -0.4,0.7 a 38.548,38.548 0 0 0 -2.4,5.9 c -0.1,-2.1 1.2,-4.6 2.8,-6.6 z m 13.8,-266.8 a 1.272,1.272 0 0 1 0.6,-0.1 c -0.7,0 -0.8,0.8 -0.9,1.9 -0.6,-0.7 -0.7,-1.4 0.3,-1.8 z m 45.4,32.4 c 4.3,2.1 8.4,3.4 12.5,5.9 -5,3.9 -20.9,10.1 -20.5,-1.8 0.1,-1.4 0.9,-5.2 2.1,-6 2,-1.3 4.2,1.1 5.9,1.9 z m -48.8,-55.8 c 18.8,6.6 40.7,4.9 59.8,1.7 20.5,-3.4 41,-5.5 60.9,-11.9 0,2.8 1.2,5.7 -1,7.9 -1.7,1.8 -5.4,2.1 -7.7,2.9 -5.9,2 -11,4.8 -17.3,6 -7,1.3 -13.9,1.3 -20.9,2.1 -2.5,0.3 -4.9,0.7 -7.3,1.2 a 32.619,32.619 0 0 0 -9.2,1.4 c -11.8,0.1 -23.5,0.4 -35.3,-1 -6,-0.7 -11.9,-1.6 -17.9,-2.2 -5.6,-0.5 -4.3,-2.9 -4.1,-8.1 z m -7.2,-50.4 c -11.1,3.1 -22.5,2.1 -33.4,-1.4 -7.9,-2.5 -18.3,-6.2 -20,-15.8 -1.1,-6.3 2.7,-7.5 7.1,-10.1 a 12.639,12.639 0 0 0 4.6,-4.3 c 0.9,-1.3 1.6,-4.4 2.6,-5.3 2.3,-2.1 9.7,-0.3 13.3,-0.4 5.4,-0.2 9.1,-2.1 14.1,-3.7 8.8,-2.8 14.4,-6.3 21.2,-12.8 6.7,-6.3 14.5,-12.8 19.9,-20.2 6,-8.3 11.8,-16.5 18.4,-24.4 4.9,-5.9 13.7,-17.7 22.4,-17.7 4.4,0 3.7,4.2 7.2,6.3 3.2,1.9 7.3,0.6 10.8,0.3 -2.3,5.2 -5.5,10.6 -4.4,16.5 0.6,3.3 1,4.5 -0.3,7.6 a 51.172,51.172 0 0 0 -3.2,8.5 116.719,116.719 0 0 0 -3,37.7 c 2.1,21.2 9.3,43 25.2,58 a 52.846,52.846 0 0 0 12,8.4 c 4.4,2.2 4.8,4.6 -0.7,5.6 -10.7,1.9 -21.5,3.3 -32.2,4.7 -10.7,1.4 -21.6,2.9 -32.5,3.2 -5.4,0.1 -10.7,0.8 -16,0.4 -2.7,-0.2 -5.3,-0.7 -8,-0.7 -2.3,-0.1 -5.8,1.1 -8,0.2 -3.4,-1.4 -1.7,-11.4 -2,-14.8 -0.3,-4 -2.8,-11.4 -1.3,-15.1 1,-2.6 4.9,-3.7 6.9,-5.8 3.3,-3.4 6.3,-7.3 7.6,-11.9 4.1,3.3 0.6,5.5 1.8,9.5 1.4,4.4 3.9,3 5.9,0 3.3,-5.1 3.1,-12.9 -0.1,-18 a 20.265,20.265 0 0 0 -7.8,-6.7 c -2.5,-1.3 -7.9,-3.7 -10.6,-2.6 -7.4,3 0.5,11.8 4.2,13.9 -0.9,2.6 -7.3,6.4 -9.7,7.5 -3.5,1.3 -8.1,2.3 -12,3.4 z m 101.4,-80.8 a 14.1,14.1 0 0 0 0.7,4.1 11.443,11.443 0 0 0 5.5,6.5 c 5.1,2.7 15.5,-1.2 20,-4.3 0,9.5 1.7,17.1 4.4,26.1 2.6,8.7 8,15.8 12.6,23.6 2.4,4 4.6,8.2 7.9,11.5 3.4,3.4 4,4.6 3.7,9.6 -0.5,8.1 -4.4,13.7 -11.7,17.1 -5.8,3.2 -17.8,5.8 -24.1,3.1 -6.7,-2.8 -13.1,-10.2 -17.4,-15.8 -9.8,-12.8 -14.8,-32.1 -14.2,-48 0.3,-8.3 0.7,-16.8 1.5,-25 0.6,-6 0.4,-14.7 9.1,-12 2.9,0.9 1.8,0.2 2,3.5 z m 33.6,111.2 c 0.8,-1.7 8.3,-3.4 9.6,-2.4 2,1.5 2,10.5 2.7,13 a 72.628,72.628 0 0 0 4.3,11.8 79.282,79.282 0 0 0 15,22.4 c 6.4,6.4 13.8,10.9 21.6,15.5 2.2,1.3 4.4,2.9 6.7,4.1 1,0.5 2.7,0.7 3.5,1.5 1.9,1.9 1,5.7 1,8.1 -0.1,9.8 -0.1,19.2 1.2,28.8 -7.6,-5.9 -14.5,-13.4 -21.3,-20.3 -7.1,-7.2 -16.3,-12 -23.1,-19.6 -6.1,-7 -11,-15.1 -15.5,-23.1 -2,-3.5 -5.7,-8 -5.9,-12.1 -0.1,-4.4 1.9,-9.2 1.9,-13.8 0,-3.3 -3,-11.3 -1.7,-13.9 z m 91.7,99.6 c -0.5,2.9 -0.1,9.3 -4.2,9.9 -2.8,0.4 -4.6,-2.2 -5.6,-4.5 -3.1,-6.8 -2.1,-15.8 -3.3,-23.1 -1.4,-8.6 -1.4,-17.1 -2.5,-25.7 -0.9,-7.6 -4.1,-17.2 -2.4,-24.6 1.5,0 5.7,14.6 6.6,16.9 1.9,4.8 4,8.8 5.6,13.8 a 121,121 0 0 1 5,19.7 c 0.8,4.7 3.3,13.3 0.8,17.6 z m 22.6,-32.4 c -3.8,5.9 -8,12.1 -13.3,17.1 0,-2.8 -2.1,-11.8 -0.7,-13.9 1.7,-2.6 11.2,-2.7 14,-3.2 z m -148.3,-233.7 c 3.2,-1.5 6.9,-1.9 10.1,-3.5 a 23.422,23.422 0 0 1 8.9,-2.6 c 12.1,-1 24.4,2.1 35.6,5.5 6.2,1.9 11,5.9 16.2,9.5 5.4,3.7 8.3,6.8 10.7,13 a 183.91,183.91 0 0 1 10.1,39.9 c 2,14.2 -1.3,28.6 -1.1,42.9 0.2,14.1 1.2,28.7 5.7,42.1 3.5,10.4 9.6,27 22.5,28.1 12.3,1 22.6,-11.7 27.7,-21.1 13.4,-25.1 18.4,-53.7 19.1,-81.9 1.9,-9.4 3,-19.6 6.2,-28.6 3.6,5.7 6.6,11.8 10,17.7 3.7,6.4 3.4,11.7 3.1,19 -0.2,5.7 -2.3,11.1 -3,16.8 -0.8,6.5 -2.4,12.9 -2.8,19.5 -0.4,7.8 0,15.7 -0.7,23.5 -0.6,6.5 -2,13.1 -3,19.6 a 107.763,107.763 0 0 0 -1,18.8 c 0.1,6.1 2.2,12 7.4,15.2 -7.7,9.4 -17.2,23.4 -30,25.6 -4.3,0.7 -8.3,1.3 -12.7,1.7 -3.5,0.3 -7.7,2.2 -10.7,0 -5.3,-3.8 -6.3,-12.3 -8.3,-17.8 -1.4,-3.8 -15,-35.2 -22.2,-26.3 -1.3,1.6 -1,7.4 -1.2,9.6 -0.3,3.2 -0.2,6.5 -0.3,9.7 -0.1,4.1 -0.5,8.3 -0.2,12.4 0.2,2.5 1.7,5.1 -1.1,5.7 -2.6,0.6 -8.1,-4.6 -10,-5.9 -2.5,-1.8 -5.3,-3.1 -7.8,-4.9 a 51.373,51.373 0 0 1 -13.2,-13.1 88.954,88.954 0 0 1 -9.7,-16.6 c -1.3,-3 -2.4,-6 -3.4,-9 a 30.555,30.555 0 0 1 -1.5,-4 c 0.3,-0.9 3.7,-2.3 4.6,-2.9 9.7,-7.7 11.7,-26.8 9.1,-38 -1.6,-6.8 -6.8,-12.7 -10.4,-18.5 -3.6,-5.6 -7.3,-11 -10.3,-16.9 -3.3,-6.5 -5.8,-13.4 -8.7,-20.1 -1.4,-3.2 -3.1,-4.9 -1,-7.8 1.3,-1.8 4,-2.6 5.1,-4.5 1.2,-2 1.3,-5.8 -0.8,-7.3 -2.3,-1.6 -5.6,0.6 -7.7,1.5 -2.8,1.1 -5.6,1.7 -8.4,2.6 -3.2,1 -6.1,3.2 -9.6,3.2 1.8,-6.3 9.8,-5.7 12.4,-11.6 1.8,-4 1.5,-11.5 -4,-12.2 -3.1,-0.4 -5.6,2 -7.9,3.6 -3.1,2.1 -5.4,2.5 -8.9,3.2 -1.3,0.2 -3.5,1.5 -4.7,1.1 -2,-0.7 -0.9,-0.3 0.2,-1.9 1.6,-2.5 5.3,-4.9 7.6,-6.7 5.1,-4.1 12.1,-7 16.5,-11.7 2.9,-3.1 4.3,-13.6 -1.2,-15.3 -2.2,-0.7 -5.8,1.5 -8,2.2 -3.7,1.1 -7.4,2 -11,3.3 -6.4,2.3 -12.6,5 -19.1,7.1 3.9,-5.7 11,-10.2 16.8,-12.9 z m 217.3,-1.6 c 0,3.6 1.4,10.5 -0.2,13.8 -1.4,3 -10,4.6 -13,5.8 -9.8,3.7 -19.5,7.8 -29.5,10.8 10.3,-15.2 25.7,-24.1 42.7,-30.4 z m -1.4,-49.3 c -2.5,3.6 -7,8.6 -12.1,6.9 -5.6,-1.9 -9.9,-10.4 -7.1,-15.8 2.4,-4.6 9.4,-7.5 13.6,-3.9 0.9,0.8 1.5,2.8 2.4,3.4 0.6,0.4 1.5,-0.7 2.2,-0.2 2.1,1.3 2.9,4.3 5.9,4.1 1.4,-0.1 5.8,-3.7 6.7,-4.7 2.4,-2.5 1.6,-5 2,-8.3 0.5,-4.5 3.6,-5.2 7.2,-7.5 3.4,-2.2 6.1,-5.5 9.4,-7.6 4,-2.5 1.7,0.7 5.4,1 0.7,0.1 2.1,-2.1 3.3,-2.1 1.5,0 2.1,1 3,2.1 1.8,2.3 0.5,3.1 3.7,3.6 2.3,0.4 3.7,-1.3 5.7,-1.3 1.6,-1.8 4,-5.7 6.9,-4.5 2,0.8 2.7,4.9 3.1,6.6 1.6,6.5 1.5,14.1 1.5,20.8 -3.7,-2.6 -4.2,-4.4 -5.4,-8.6 -0.8,-2.7 -2.6,-6.8 -4.6,-2.6 -0.6,1.2 -0.1,3 -0.5,4.2 -0.4,1.5 -1.5,2.2 -1.6,3.8 -0.4,3.9 2.8,5.3 5.6,7.2 -2.6,2.8 -10.1,0.7 -8.1,6.7 2.1,6.3 10.2,2.8 14.2,1.2 3.4,13 -11.8,19.3 -21.1,22.9 -5.5,2.1 -7.6,3.3 -8.3,9.6 a 34.316,34.316 0 0 0 2.1,16.2 55.165,55.165 0 0 0 2.7,6.7 c 0.9,1.6 2.8,1.7 3.4,2.6 2.3,3.3 0.6,10.5 0.4,14.4 -0.7,10.8 -4.1,20.7 -5.6,31.3 -0.7,5.4 -3,10.5 -3.9,15.8 -0.9,4.9 -1.2,9.5 -5.4,13 -8.3,7 -14.7,-3.4 -17.6,-10.2 -4.1,-9.7 -4.5,-22.5 -3.8,-32.9 0.7,-11.3 5.9,-22.1 6.2,-33.3 0.3,-12 -1.5,-23.4 -4.5,-35 -1.3,-5.1 -3.2,-9.6 -4.8,-14.5 -1.5,-3.9 0.7,-7.5 -2.2,-11.1 z m 21.5,-118.6 v 0 c 0,0 -0.1,-0.1 -0.2,-0.2 z m 0.3,-1.1 a 11.965,11.965 0 0 0 -0.6,-2.4 c 0.4,0.3 1,0.5 1,0.8 a 3.1,3.1 0 0 1 -0.4,1.6 z m 12.3,2.1 c -0.1,0 -0.2,0.1 -0.3,0.1 a 0.749,0.749 0 0 1 -0.5,-0.1 h 0.2 a 0.637,0.637 0 0 0 0.6,0 z m 6.5,-2.1 a 8.094,8.094 0 0 0 -3.7,0.5 l 0.6,-0.3 a 9.4,9.4 0 0 1 3.1,-0.2 z m -65.4,316.8 c 0.2,-5.4 0.2,-7 4.5,-10.5 3.6,-2.9 7,-6 10.6,-8.8 7.9,-6.4 16.4,-13.1 25.5,-17.8 5.1,-2.7 18.9,-8 15.4,2.5 -3.3,9.9 -9.7,18.7 -15.1,27.5 -5.6,9 -11.2,18 -17,26.8 -2.5,3.8 -5.2,7.6 -7.6,11.5 -2.4,3.9 -2.6,6.4 -7.5,4.9 -3.5,-1.2 -7.5,-2.6 -10.9,-4.1 -2.9,-1.3 -2.8,-2.1 -2.8,-5.6 1.8,-9.1 4.5,-17.2 4.9,-26.4 z m 22.7,-108.5 c -1.2,5 -10.1,5.6 -14.8,6.5 -0.8,0.2 -5,1.5 -5.7,1 -1.5,-0.9 -0.8,-3.5 -1.4,-4.8 -3.6,-7 -3.6,1.9 -4.6,4 -2.8,5.7 -7,-5.8 -8.6,-8.6 -1.2,-2.2 -2.5,-3.3 -1.2,-5.1 1,-1.5 6.8,-2.6 8.6,-3.2 6.5,-2.4 12.9,-4.8 19.3,-7.2 2.8,-1 11.3,-6.5 11.2,-1.3 -1.1,6.1 -1.3,12.7 -2.8,18.7 z m -4.8,59.2 c -2.7,0.8 -10.1,4.2 -12.8,2.6 -2.3,-1.3 -0.7,-6.1 -0.5,-8.5 a 97.675,97.675 0 0 0 0.2,-14.3 c -0.4,-6.9 -1,-7.4 5.8,-9.3 2.6,-0.7 10.6,-4.6 12.6,-2.4 0.9,1 0.5,4.3 0.7,5.5 a 34.773,34.773 0 0 0 2.2,7.8 59.353,59.353 0 0 0 6.7,12.1 65.447,65.447 0 0 1 -14.9,6.5 z m -15.4,-48.6 c 1.2,-1.7 7,-1.9 8.9,-2.3 3.4,-0.7 6.8,-1.4 10.2,-2.2 0.2,4.2 2.5,15 -0.5,18 -1.7,1.7 -7.3,2.1 -9.7,2.7 -2.6,0.6 -5.2,1.3 -7.8,1.9 -0.3,-4 -0.5,-8 -1,-12 0,-1.4 -1,-4.7 -0.1,-6.1 z m 0.7,54.9 c 1.8,-2.1 6.7,-2 9.4,-2.6 a 79.468,79.468 0 0 0 12.5,-4.1 c 2.3,-1 6.8,-4.2 9.3,-3.4 0.7,0.2 2.2,3.1 2.7,3.7 a 27.94,27.94 0 0 0 11.4,5.7 c -18.1,7.4 -32.6,20.6 -47.6,32.8 -1.1,-0.9 -0.5,-8.8 -0.4,-10.7 q 0.3,-5.1 0.6,-10.2 c 0.1,-2.9 0.2,-9 2.1,-11.2 z m 54.9,72.2 c -0.5,3.1 -0.6,7.3 -2,10.2 -1.2,2.6 -1.1,2.4 -4.3,2.5 -4.1,0.1 -8.8,0.8 -12.7,-0.5 3.5,-7.8 6.5,-16.2 11.3,-23.3 1.5,-2.2 4.4,-7.9 7.6,-7.6 3.2,0.3 2.5,3.5 2.2,5.8 -0.4,4.3 -1.3,8.6 -2.1,12.9 z m 15.9,-121.5 c 2.4,-16.8 2.2,-33.2 2.2,-50.1 3.9,0.5 8.2,0.2 12,1.3 -1.2,3.9 -4.7,7.4 -1.3,11.1 3.5,3.7 11.7,5.4 16.5,6.8 5.6,1.6 11.3,3.6 17,4.5 a 23.922,23.922 0 0 0 8,0.3 c 4.1,-0.8 4.5,-1.9 7.2,2.4 a 0.1,0.1 0 0 0 0.1,0.1 6.527,6.527 0 0 0 -2.6,-0.2 c 0.1,0.3 0.2,0.7 0.3,1 a 6.6,6.6 0 0 0 -2.6,-1.1 c -2.7,-0.5 -6.1,0.7 -8.7,1.3 a 146.144,146.144 0 0 0 -17.2,4.8 c -4.7,1.7 -9.4,3.5 -14,5.7 -3.5,1.7 -11.6,4.7 -12.7,8.8 -2.1,8 19,14 24.1,16.7 4.9,2.5 3.3,6.3 3.4,11.4 0.1,5.5 0.6,11 0.2,16.4 -0.3,4.3 -0.6,3.6 -4.9,3.5 -3.2,-0.1 -6.4,-0.2 -9.5,0 a 46.044,46.044 0 0 0 -13.3,2.5 c -6.3,2.4 -18.4,14 -6.3,17.6 5,1.5 11.3,0.9 16.4,0.6 4.4,-0.3 11.3,-2.3 15.6,-0.8 q 3.3,-0.9 2.4,2.4 c 0.1,1.5 0.2,3.1 0.3,4.6 l 0.6,9.3 c 0.4,6.3 0.8,12.6 1.3,19 -3.7,-5.2 -8.8,-15.6 -16.6,-14.4 -6.8,1 -10.7,11.5 -12.9,16.9 a 106.666,106.666 0 0 0 -4.1,13.6 c -1.1,4.4 -1.6,10.6 -3.7,14.6 -2.1,3.9 -4.9,2.6 -9.2,3 -5.3,0.5 -3.2,-2.5 -2.3,-7 1.3,-6.9 5.8,-18.7 1.4,-25.1 -5.6,-8.2 -13.5,7 -15.6,11 a 124.912,124.912 0 0 0 -5.3,11.8 c -1,2.6 -1.8,8.2 -4.4,9.6 -3.1,1.7 -8.1,-1 -11,-2 -3.4,-1.1 -7.1,-1.5 -10.5,-2.2 9.9,-15.5 20.2,-30.7 29.8,-46.4 4.8,-7.8 10.8,-16 13.5,-24.9 a 12.782,12.782 0 0 0 0.9,-5.1 c -0.2,-1.5 -2.5,-3.9 -2.3,-5 0.2,-1.6 3.4,-2.9 4.8,-4.5 5.1,-5.7 6.4,-12.5 8,-19.8 1.7,-7.7 3.8,-16 5,-24 z m 19.3,-48 c 7.5,-1.6 16.1,2.7 22.4,6.2 4.2,2.3 15.2,7.1 15.7,12.8 -0.1,-1.5 -10.3,-0.6 -12.3,-0.5 -8.6,-1.9 -17.8,-4.4 -25.8,-8.1 -2.9,-1.4 -6.4,-2.7 -5.3,-6.2 0.6,-2.3 3.2,-3.7 5.3,-4.2 z m -8.7,111.1 c -4.8,-0.3 -22,-0.1 -13.3,-8.7 5.4,-5.4 15.5,-6.6 22.7,-6.6 a 64.93,64.93 0 0 1 7.7,0.5 l 2.1,0.3 c 2.2,-0.4 2.8,0.5 2,2.7 0.4,1.3 1,9 -0.1,10.1 -1.5,1.4 -6.3,0.8 -8.1,0.9 -4.4,0.2 -8.7,0.8 -13,0.8 z m 25.2,65.3 c -12.5,1.9 -25,4.2 -37.7,4.4 1.9,-9.3 4.1,-18.5 7.6,-27.3 2.2,-5.6 6.2,-17.8 13.9,-17.2 6.2,0.5 13.4,11 15.1,16.4 2.2,7.1 1.1,16.4 1.1,23.7 z m 32.2,-140.7 c -0.2,1.3 -5.9,3.6 -7.1,4.3 a 62.052,62.052 0 0 0 -21.6,21 c -0.6,-3.3 -0.5,-9.5 -3.2,-11.8 -4.8,-4.1 -3.8,5.1 -4.4,7.9 -0.5,2.6 0.1,2.2 -2.1,2.4 -2,0.2 -7.1,-3.6 -9,-4.5 -5.1,-2.6 -10,-5.5 -15,-8.5 4.1,-6.7 16.1,-9.8 23,-12.5 9.9,-3.9 19.6,-5.9 30,-7.5 1.7,0.9 2,-1.1 3.3,-1.6 a 0.367,0.367 0 0 0 0.1,-0.3 c 1.5,2.4 6.4,9.2 6,11.1 z m 12.8,90.9 c 4.9,22.3 6.1,45.5 12.2,67.5 5.8,20.9 11,41.8 17.7,62.4 3.9,11.9 7.5,23.9 12.7,35.3 3.6,8 6.5,25 15.3,28.7 5.8,2.4 8.3,0.3 7.7,-5.6 -0.5,-5.1 -3.2,-8.3 -5.3,-12.7 -0.8,-1.5 -3.2,-5.8 -3,-7.5 0.3,-2 0.8,-1.8 3,-2.8 a 74.229,74.229 0 0 1 13.7,-4.8 c -1.9,3 -5.8,7.2 -6.1,10.9 -0.3,3 1.9,8.5 4.9,9.7 2.8,1.1 6.1,-1.2 8.6,-2.6 2.8,-1.6 5.5,-2.1 8.5,-3.2 -3.9,5.7 -10.3,10.2 -7.6,17.9 2.9,8.3 12,1.5 17.9,0.6 -1.7,6.4 -9,13.8 -14.3,17.3 a 97.274,97.274 0 0 1 -11.3,6.5 c -1.5,0.8 -3.4,1.2 -4.8,2.1 -0.5,0.3 -1.4,1.8 -1.9,2 -6.6,3.2 -15.6,4 -22.8,5.5 a 83.443,83.443 0 0 1 -22.9,1.7 c -6.7,-0.3 -14.2,-4.5 -19.8,-7.9 -4.3,-2.6 -4.9,-5.9 -6.2,-10.5 -2.2,-7.7 -4.2,-15.5 -6.3,-23.3 -1.8,-6.7 -2.7,-13.1 -3.9,-19.9 -2.6,-14.4 -3.8,-29 -6.6,-43.4 -2.8,-14.3 -3.7,-28.7 -4.5,-43.3 -0.4,-7 -1.5,-14.2 -1.9,-21.1 -0.3,-5.6 -0.2,-11.2 -0.2,-17 0,-4.1 -1.4,-8.1 -1.3,-12.2 a 73.59,73.59 0 0 0 0,-10.5 c -0.8,-7.7 -1.4,-15.4 -2.1,-23.1 -1.2,-15.1 -4.7,-30 -6.1,-45 -0.6,-6.5 6.5,-12.7 11.4,-16.5 5.2,-4 9.3,-9.7 15,-12.9 2,26.2 4.7,52.1 10.3,77.7 z m -85.5,278.9 -16.8,7.5 c -4.1,1.8 -9.5,5.6 -14,5.3 3.2,-4.4 5.2,-9.3 8.7,-13.6 3.4,-4.2 6.2,-8.7 9.3,-13.2 4.1,4.9 8.3,9.5 12.8,14 z m 1.2,-21.9 c 8.5,-4.5 20.5,-12.9 30.4,-11.3 7.1,1.2 15.2,6.4 19.5,12.1 2,2.7 4,5.2 6.4,7.9 2.1,2.4 3.2,2.1 1.4,4.6 -1.4,1.9 -4.8,3.3 -7,4 0,-4.3 1.3,-8.5 -3.8,-8.1 -2,0.2 -4.4,0.6 -6.4,1 -1.7,0.3 -2.7,1 -4.2,1.4 -1.6,0.4 -3.5,-0.1 -5.1,0.1 -2.8,0.2 -5.1,1.3 -7.7,1.9 a 138.435,138.435 0 0 0 -15.5,4.7 c -2.5,-3.8 -4.5,-8.3 -7.9,-11.3 -3.7,-3.5 -5.3,-4.2 -0.1,-7 z m -72.5,-562.4 a 3.56,3.56 0 0 0 2.4,-1.6 c -1.2,1.8 -1.8,1.8 -2.4,1.6 z m -25.4,2.9 a 11.444,11.444 0 0 1 2.8,0.8 8.32,8.32 0 0 1 1.7,1.2 4.893,4.893 0 0 0 -0.7,-0.3 27,27 0 0 0 -3.8,-1.7 z m -16.9,139.7 c -0.1,-0.1 -0.1,-0.2 -0.2,-0.3 a 0.78,0.78 0 0 0 0.2,0.3 z m -3.3,0.5 a 1.553,1.553 0 0 1 -0.8,-0.6 1.557,1.557 0 0 0 0.8,0.6 1.487,1.487 0 0 0 0.7,0.1 1.489,1.489 0 0 1 -0.7,-0.1 z m -1.3,-2.7 a 3.083,3.083 0 0 0 0.1,1 2.787,2.787 0 0 1 -0.1,-1 z m 4,1.5 -0.2,-0.2 z m -0.7,-0.6 a 0.755,0.755 0 0 0 -0.4,-0.2 0.751,0.751 0 0 1 0.4,0.2 z m 140.6,-134.7 a 0.9,0.9 0 0 0 0.5,0.1 4.423,4.423 0 0 1 -0.5,-0.1 z m 4.4,2.9 a 4.366,4.366 0 0 1 -1,-1.5 0.367,0.367 0 0 0 0.3,0.1 l 0.5,-0.5 a 1.11,1.11 0 0 0 -0.1,1.1 c 0.8,1.7 1.8,-0.9 3,0.4 -1,0 -2.1,0.4 -2.7,0.4 -1.4,1.9 -2.8,3.9 -4.2,5.8 1.9,1 2.5,-0.2 3.6,1.5 0.1,0.1 0.1,0.3 0.1,0.6 -0.4,-1.3 -1.6,-1 -3.7,-2.1 1.3,-1.9 2.8,-3.9 4.2,-5.8 z m 3.6,4.3 a 1.381,1.381 0 0 0 0.3,-0.4 c 0,-0.1 0.1,-0.3 0.1,-0.4 0,0.2 0,0.3 -0.1,0.4 -0.1,0.1 -0.1,0.3 -0.3,0.4 a 0.366,0.366 0 0 1 -0.3,0.1 c 0.1,0 0.2,-0.1 0.3,-0.1 z m 0.4,-2.1 z m -2.1,5.2 c 0.1,0.1 0.1,0.2 0.2,0.3 0,-0.1 -0.1,-0.2 -0.2,-0.3 z m -2.1,7.6 c -2,-1.1 -0.3,-2.4 -0.2,-4.1 v 0.5 c -0.1,2.3 -1.8,3 1.2,3.7 0.2,0 0.5,0.1 0.8,0.1 a 4.7,4.7 0 0 1 -1.8,-0.2 z m 31.3,17.4 c -0.1,-1 4.4,-3.1 4.9,-3.3 -0.6,0.3 -5,2.4 -4.9,3.3 z m 5.2,-8.5 v 0 a 0.31,0.31 0 0 1 -0.1,-0.2 c 0,0.1 0,0.2 0.1,0.2 z m 2.3,7.8 a 5.586,5.586 0 0 0 0.1,-0.7 5.16,5.16 0 0 1 0.2,1.1 0.535,0.535 0 0 0 -0.3,-0.4 z m -3.4,-0.1 c 0,-1.6 0.5,-1.3 0.8,-1.2 -0.3,0.4 -0.8,0.5 -0.8,1.2 z m -4.8,3.6 a 1.344,1.344 0 0 1 1.2,0.5 c -0.7,-0.2 -1.4,-0.4 -1.2,-0.5 z m -3.8,9.3 c -0.1,0 -0.1,0 -0.2,0.1 0,-0.1 0.1,-0.1 0.2,-0.1 z m 0.3,-0.1 c -0.1,0 -0.1,0 -0.1,0.1 z m -0.7,0.2 a 0.366,0.366 0 0 0 -0.3,0.1 0.366,0.366 0 0 1 0.3,-0.1 z m 3,56.3 a 1.626,1.626 0 0 1 1.1,-0.5 1.746,1.746 0 0 0 -1.2,1.5 1.211,1.211 0 0 1 0.1,-1 z m 3.5,-10.4 h -0.1 c -1,-0.1 -1.4,0.6 -1.5,1.5 a 1.946,1.946 0 0 1 1.1,-1.8 c 0,-0.1 -0.1,-0.1 -0.1,-0.2 0.2,0.2 0.4,0.3 0.6,0.5 z m -1.2,5.2 a 0.756,0.756 0 0 0 -0.1,-0.4 7.362,7.362 0 0 0 0.4,1.4 c -0.1,-0.3 -0.2,-0.7 -0.3,-1 z m 0.9,-16.2 c -0.1,0 -0.2,0.1 -0.3,0.1 a 0.368,0.368 0 0 0 0.3,-0.1 z m 0.2,-0.1 c -0.1,0 -0.1,0.1 -0.2,0.1 a 0.345,0.345 0 0 0 0.2,-0.1 z m -0.5,0.2 c -0.1,0 -0.2,0.1 -0.4,0.1 0.2,0 0.3,0 0.4,-0.1 z m 1,-11.8 z m 196,583.4 c -2.7,-2.4 -11.8,-2.6 -15.3,-3.3 7.8,-7.4 13.6,-26.2 -1.2,-28.7 -3.3,-0.5 -4.2,0.7 -5,-3 -0.5,-2.3 0.5,-4.4 -0.7,-6.7 -2.7,-5.4 -12.9,-4.8 -18,-5.6 1.2,-4.3 4.2,-11.9 -0.3,-15.4 -3.6,-2.7 -10.9,0.9 -14.7,2.1 -10.2,3.2 -20.6,6.8 -29.2,13.2 -3.9,-5.2 -7.9,-10.3 -11.1,-16 -3.1,-5.4 -5,-11.3 -7.9,-16.8 -2.9,-5.5 -6,-11.9 -10.1,-16.7 -3.4,-4 -8.2,-4.4 -12.7,-6.3 -11.5,-4.8 -21.5,-4.6 -33.5,-2.8 -12,1.8 -22.4,8.8 -32.6,15 -4,-13.5 -13.2,-28.1 -27.6,-32.3 -6.4,-1.9 -13.2,-0.1 -19.1,2.9 -7.3,3.6 -13,9.8 -20.1,13.3 8.1,-13.9 18.4,-27 27.3,-40.1 4.9,-7.2 11.1,-13.6 15.9,-21 4.9,-7.5 8.5,-15.8 12,-24 3,7.6 3.5,15.6 6.2,23.3 2.5,7 4.2,14.2 7.1,21.1 3,7.2 5.6,14.3 9.7,21 2.3,3.8 8,15.7 12.2,8.1 9.3,6.3 18.3,10.1 30,9.8 5.3,-0.1 11.3,-0.3 16.4,-1.5 5.2,-1.2 10.1,-2.8 15.3,-4 4.1,-0.9 7.8,-3.4 11.5,-5.3 4.3,-2.1 8.5,-5.9 11.8,-9.3 4.1,-4.1 8.3,-8.1 12.4,-12.2 4.1,-4.1 3.8,-8.2 5.9,-13.3 2.3,-5.3 3.2,-10 0.2,-15.3 -2.2,-3.9 -6.1,-3.4 -7,-7.3 -0.9,-3.8 0,-7.3 -2.4,-10.7 -1.8,-2.6 -8.2,-4.4 -8.2,-7 0,-2.2 2.3,-4.2 2.2,-6.8 a 19.61,19.61 0 0 0 -2.5,-8.2 c -2.4,-3.8 -6,-3.9 -10.1,-2.7 -9.9,2.8 -19.6,9.9 -26.4,17.4 -9.3,-25.6 -16.7,-51.7 -23.5,-77.8 -3,-11.5 -5.4,-23.2 -7.3,-35 -1.9,-11.7 -4.8,-23.4 -6.1,-35.1 -0.8,-7 -2.9,-13.6 -3.9,-20.5 -0.8,-5.7 -1.4,-11.5 -2.2,-17.3 -1.8,-12.7 -4.4,-25.3 -6.3,-38 -1.1,-7 -3.5,-13.2 -5.4,-19.9 -1.6,-5.8 -2.6,-10.8 -5.3,-16.2 -5.2,-10.5 -10.5,-23.3 -20.5,-29.9 -8.9,-5.9 -17.6,-10.8 -28.5,-12.1 -6.4,-0.7 -11.5,0.8 -17.8,1.5 -5.5,0.6 -10.3,3.7 -15.6,4.8 0,-5.1 -0.5,-5.3 4.2,-7.1 2.7,-1 5.3,-2.2 8.1,-3.1 a 25.011,25.011 0 0 0 7.5,-3.7 c 2.9,-2.1 1.1,-1.4 4.6,-0.7 5.5,1.1 3.9,-0.2 7.5,-2.9 2.1,-1.6 4.2,-0.6 6.7,-0.3 2.3,0.3 6.1,1.3 7.8,-0.8 1.3,-1.6 -0.1,-4.3 0.9,-6 1.5,-2.7 6,-2.6 8.4,-4.4 2.6,-2 2.8,-4.2 2.3,-7.3 -0.4,-2.1 -3.7,-6.8 -3.5,-8.6 a 1.664,1.664 0 0 1 1.6,-1.7 c 6.5,0.3 6.2,-0.7 4.6,-6.4 -0.1,0.9 -0.1,1.6 -0.2,2.2 a 6.841,6.841 0 0 1 0.2,-2.2 c 0.2,-0.4 0.8,-0.6 1.3,-0.9 l -0.5,0.5 c 0.3,1.2 0.4,4.4 1.5,5.3 0.8,0.6 3.8,0.6 4.4,-0.5 1.2,-2.2 -3,-3.4 -3.2,-5 4.9,-0.4 3.2,-2.8 0.7,-5.3 -0.1,-0.7 0.3,-1 1.2,-1 a 2.479,2.479 0 0 0 -1.5,-0.8 1.884,1.884 0 0 0 0.9,-0.4 0.94,0.94 0 0 0 0.1,-0.9 2.544,2.544 0 0 1 0.2,0.7 c 4.2,1.7 2.1,-7.4 0.3,-8.9 0.1,-2.5 0.3,-5 0.4,-7.6 a 5.62,5.62 0 0 0 -2.4,3.3 c 0,-1.2 0.7,-2.2 2.4,-3.3 -2.7,-1.2 -3,-1.3 -0.1,-1.6 2.4,2.2 2.1,0.4 3.6,-1 -0.1,0.1 2.3,-2.5 2.1,-2.1 1.1,-2.8 -0.1,-8.6 -4.6,-6.7 2.5,2.2 0,2.6 -0.9,4.5 0,0.1 -0.1,0.1 -0.1,0.2 a 1.421,1.421 0 0 1 0.2,-0.6 c 1.5,-3.3 1.9,-0.8 0.2,-4.5 v 0 a 2.678,2.678 0 0 0 2.2,-0.3 c 1.4,-1.7 1.8,-1 2.5,-3.1 q 0.9,-2.85 -0.9,-3.9 c 0.1,0 0.3,0.1 0.4,0.1 a 2.769,2.769 0 0 0 -1.5,-3.5 c -0.5,0.9 -1.1,1.7 -1.6,2.6 0.2,0.1 0.5,0.1 0.7,0.2 v 0 c -1.7,-0.2 -2.4,0.1 -2.6,0.9 a 1.183,1.183 0 0 1 0.1,-1 c 0.2,-0.3 1.7,0.2 1.8,-0.1 2.6,-4.3 -0.1,-7.8 -4.3,-10 -1.6,-0.8 -4.7,-0.9 -5.3,-2.8 -0.4,-1.4 1.6,-4.7 2,-6.3 2.9,-1.3 -2.5,-2.1 -2.5,-2.1 -0.2,1.9 -0.1,2.8 1,2.6 -1.1,0.2 -1.2,-0.7 -1,-2.6 1.6,0.2 6.3,-0.2 8.5,-1.8 3.8,0.1 5.7,0.8 8,-2.5 -2.2,-0.9 -4.9,-0.4 -6.9,-1.9 a 4.97,4.97 0 0 1 0.2,1.2 3.6,3.6 0 0 0 -1.1,-1.4 c 0.3,0.3 0.2,0.4 -0.2,0.4 a 0.52,0.52 0 0 0 0.2,-0.4 c 0.1,-1.6 1.3,-0.9 2.5,-0.8 a 2.654,2.654 0 0 0 -0.5,-1.4 4.566,4.566 0 0 1 0.5,1.4 c 0.8,-0.5 1.5,-1 2.3,-1.4 a 1.234,1.234 0 0 0 0.8,-0.5 v 0 c 3.6,1.1 2.5,-6.5 0.8,-6.5 a 1.53,1.53 0 0 0 -1,0.4 18.292,18.292 0 0 1 0.5,-2.5 v 0 c 0.2,-0.4 0.3,-0.9 0.5,-1.3 -0.9,0.1 -3.8,-1.7 -3.9,0.4 a 1.913,1.913 0 0 0 -0.5,-1 c 0.3,-2.3 -1.1,-2.1 -3.2,-2.8 -0.8,-0.2 -1.6,-1.7 -2.5,-1.1 -1.3,0.9 -0.5,1.8 0.3,2.5 a 2.865,2.865 0 0 1 -1.1,1.9 c -0.1,-0.1 -0.2,-0.2 -0.3,-0.2 a 3.028,3.028 0 0 0 1.4,-1.7 c -2.7,-2.1 -3.9,-0.7 -5.9,1 a 4.251,4.251 0 0 0 2.7,1.1 c 0,0.1 -0.1,0.2 -0.1,0.3 a 3.973,3.973 0 0 1 -2.6,-1.4 c 2.2,-1.8 2,-3 -0.7,-4 -0.9,-0.4 -1.5,0.5 -2.6,0 -0.6,-0.2 -1,-1.2 -1.5,-1.5 -4.1,-2.4 -9,-1 -13.3,-1.6 0.5,-0.1 1,-0.1 1.4,-0.2 -0.4,-1.5 -1.6,-2.1 -2.8,-2.6 v -2.6 c -0.2,0 -0.3,-0.1 -0.5,-0.1 a 0.97,0.97 0 0 0 0.4,-1.1 2.015,2.015 0 0 1 -2.5,-0.7 c 1.1,1.5 3.4,0.7 4,-1.2 0.7,-2 -0.8,-3.3 -2.1,-4.7 0,-1.4 -0.6,-1.9 -1.3,-2 1.4,-2.7 1.7,-1.4 0.2,-4.8 -0.1,-2.3 -2.1,-1.5 -3.4,0 0.1,-0.3 0.3,-0.7 0.4,-1 -1,-0.1 -2.1,-0.1 -3.1,-0.2 0.3,0.8 0.8,2.3 0.1,3 0.5,-0.7 0.1,-2.3 -0.1,-3 -1.3,-0.7 -2.5,-1.4 -3.8,-2.1 0.1,0.2 0.4,1.1 0.8,2 a 33.1,33.1 0 0 0 -3.1,-3.6 c -0.6,-0.7 -3.2,-3.9 -3.9,-4.1 -4.3,-1.2 -7.5,7.1 -12.8,6 -3.1,-0.7 -1.6,-1.5 -4.6,-0.9 -1.6,-2.1 -12,1.2 -12.4,3.2 a 0.9,0.9 0 0 1 0.5,-0.1 c -1.2,0.4 -2.2,1.1 -3.3,1.5 -2.9,1.1 -1.2,1.4 -4.4,-0.5 a 3.885,3.885 0 0 0 -1.9,-0.5 c 1.4,-0.6 2.1,-5 2.1,-6.5 0,-3.7 -0.4,-3 1,-5.7 a 8.764,8.764 0 0 0 -3,0.2 5.663,5.663 0 0 0 0.3,-1.8 c 0.7,-2 0.1,-4.3 -2.1,-4.8 -3.4,-0.8 -4,4 -1.6,4.8 -2.3,-0.8 -1.4,-3.8 -4.6,-4.2 1.2,-0.1 1.9,0.2 3,1.5 0.4,-0.7 0.7,-1.5 1.1,-2.2 -2.5,-0.3 -3.7,-0.5 -5.7,0.7 -2,0.4 -3.4,1.8 -4.9,3.2 -4.1,3.9 -7.8,7.6 -11.6,11.8 -1.9,-4 -4.1,-6.9 -7.3,-2.4 a 50.262,50.262 0 0 0 -6.6,14.3 c -3,-1.4 -1.7,-1.8 -3,-4 1.3,2.1 0,2.6 3,4 0.3,-0.9 0.6,-1.9 0.9,-2.8 -2.6,-3 -2.5,-5.9 -5.3,-9 -0.3,1 0.6,2.4 0.7,3.4 0.2,1 -0.9,1.7 -0.7,2.8 1,-0.4 1.3,-0.2 1.3,0.3 0,-0.4 -0.3,-0.6 -1.3,-0.3 -0.4,-1.8 0.6,-2.7 0,-4.7 a 6.256,6.256 0 0 0 -1,-2 c 1.8,-3 -4,-5.1 -5.3,-3.3 a 2.092,2.092 0 0 0 -0.4,0.6 c -2.3,-1 -3,1.1 -4,2.8 a 10.93,10.93 0 0 1 -0.8,1.5 c -1.3,1.1 -2.6,3.4 -3.6,4.9 -2.1,3.2 -3,7.9 -5.7,10.5 0.1,-1.7 1,-5.5 -2.1,-4 1,-0.5 1.2,-1.1 0.9,-1.8 l 0.6,0.3 c 0.4,0 0.9,0.1 1.3,0.1 -0.1,-2.4 -1.6,-4 -3.5,-5.3 v 1.8 c -0.8,-2 -0.5,-2.6 -1.2,-3.2 a 3.086,3.086 0 0 0 1,0.1 c -2.3,-3.9 -5.4,-4.5 -9.6,-3.4 0.3,0.1 0.6,0.1 0.9,0.2 a 3.529,3.529 0 0 0 -1.4,0.3 c -1.6,0.8 -4.1,5.4 -5.2,7 -4,5.6 -5.9,12.5 -8,18.9 -0.6,1.8 -1.5,6.1 -3.8,6.7 -2.6,0.7 -5.5,-3.6 -7.8,-5 -7.5,-4.6 -11.2,3.7 -12.3,10.2 -1.7,2.9 -1.3,5.2 1.2,6.5 a 6.471,6.471 0 0 1 -1.1,-3.2 c 0.3,1.9 1.9,2.5 2.2,3.3 a 20.877,20.877 0 0 1 0.4,3.6 q 1.95,1.5 0.3,2.1 c -0.7,0.5 -1.3,1 -1.9,1.5 -1.8,1.9 -1.8,4.5 -3.4,6.3 -1.8,2.1 -3.5,1.2 -4.4,4.6 -1.5,5.8 2.2,14.7 8.8,15.2 -0.8,2.3 -1.8,4.6 -2.4,7 -0.8,3.1 -0.7,3.5 0.8,6.5 -11,-1.6 -10.2,10 -3.9,15.8 a 12.419,12.419 0 0 0 5,2.8 c 1.4,0.4 5.6,0.2 6.6,1.5 2.1,2.8 -2.6,6.4 -3,9.5 a 7.351,7.351 0 0 0 0,1.5 c -1.7,2.1 -1.7,2.3 0.8,4.3 1.4,1.8 5.6,1.3 6.8,3 2,2.6 -2.4,6.7 -0.2,9.7 1.7,2.4 3.6,0.9 6.4,1.9 1.4,0.6 2.7,1.2 4.1,1.9 a 4.851,4.851 0 0 1 2.1,-0.8 c 1.6,0.8 0.1,2.2 2.1,2.7 1,0.3 3.4,1.6 4.5,0.9 -1.5,0.9 -2.5,3.2 -3.3,5.6 -0.8,1.3 -1.6,2.8 -1.3,3.9 a 20.917,20.917 0 0 1 -1.6,3.9 c 3.4,0.5 3,3.8 5.4,5.5 3.2,2.8 3.8,0.2 3,-1.1 0.3,0.2 0.7,0.4 1,0.6 0.1,0 -0.6,1.7 0.1,2.1 1,0.5 0.9,0 1.9,0 0.9,0 2.3,-1.4 3.4,-1.5 0.6,-0.1 2.4,0.8 2.8,0.5 a 1.506,1.506 0 0 0 0.5,-2.3 l 0.5,0.9 c 1.1,2.9 1.7,2.2 3.3,1.4 -0.5,0.2 1.3,-1.1 1.7,-1 -0.8,-2.3 -4.1,-2.1 -6.1,-2.6 1.3,0.4 3.4,0.4 4.5,0.9 2,0.8 1.3,1.7 3.7,2 1,0.1 5,-1 5.7,-1.7 0.1,-0.1 0.1,-0.2 0.2,-0.2 0.4,-0.6 0.7,-1.2 1.1,-1.7 1.5,0.2 -0.1,2.5 2.2,1.5 1.7,-0.7 0.9,-1.6 0.3,-2.7 a 5.547,5.547 0 0 0 -0.6,-0.8 c 2.4,0.6 5.3,3.8 8.5,2.9 1.9,-0.5 2,-1.8 3.3,-3 1.8,-1.6 2.4,-1.3 4.6,-2.1 1.3,-0.5 2.7,-1.5 4.1,-1.7 2.2,-0.4 1.6,-0.1 3.4,0.8 1.1,0.5 1.7,1.6 3.1,1.8 1.2,0.2 3.2,-1.2 4.2,-0.9 2.7,1.1 2,4.9 2.2,7.5 -13.9,-4.4 -30.1,2.6 -40.3,12.3 -2.8,2.6 -4.6,5.7 -7,8.6 -2.7,3.1 -5.2,4.5 -5.6,8.9 -0.3,3.8 1.4,6.1 0,9.8 -1.3,3.5 -2.7,6.6 -3.7,10.3 -4.5,17.5 -4.7,35.6 -8.1,53.3 a 176.871,176.871 0 0 1 -14.9,46 c -3.4,7 -6.2,11.2 -13.7,14.2 -6,2.4 -10.4,-0.7 -13.4,-6.2 -7.9,-14.6 -9.1,-29.6 -9,-45.8 a 230.107,230.107 0 0 1 1.7,-23.4 c 0.8,-8 0.2,-15.6 -0.4,-23.6 -1.1,-16.1 -4.8,-29.9 -10.3,-45.1 -2.6,-7.2 -4.8,-14.2 -11.1,-18.9 -3.5,-2.6 -7.1,-5.9 -11.2,-8.2 -3.3,-1.8 -5.3,-3.4 -9.1,-4.3 -2.5,-0.5 -4.8,-1.4 -7.2,-2.1 a 61.947,61.947 0 0 0 -18.2,-2.4 c -13.9,0 -29.1,4.7 -41.6,10.7 -6.2,3 -13,7.4 -17.1,13.1 a 39.217,39.217 0 0 0 -4,7.6 c -1.4,3.1 -0.9,3.7 -3.9,3.6 -1.8,-0.1 -3.9,-1.8 -6,-1.8 -2.3,-0.1 -4,0.7 -6.1,1.3 a 23.669,23.669 0 0 0 -7.6,3 c -5.8,3.8 -10.8,9.8 -15.2,15 -8.2,9.6 -15.5,20.3 -23.2,30.1 -7.5,9.6 -16.6,18.1 -28.3,22.5 -4.5,1.7 -9.4,2 -13.9,3.3 -2,0.6 -4.4,2.2 -6.5,2.1 -3.3,0 -3,-1.7 -4.2,-4.3 a 23.411,23.411 0 0 0 -5.8,-7.8 c -10.8,-10.3 -24.3,4.9 -23.5,16.7 0.5,6.8 5.6,11.4 5.4,18.1 -0.2,6.3 0.2,12.7 2.4,18.6 2.5,6.7 8.7,13.6 14.2,18.2 5.1,4.2 11.4,5.1 17.8,5.8 2.9,0.3 5.9,1.2 8.8,1.1 2.4,0 4.6,-1 7.1,-0.9 4.2,0.2 6.4,0.1 10.4,-1.3 a 21.357,21.357 0 0 1 8.7,-1.6 c 0,6.7 0.4,13.2 1,19.9 0.1,0.9 0.7,3.2 0.3,3.9 -0.5,1 -1.1,0.3 -1.7,1 -1.5,1.7 -2.6,2.5 -3.7,4.6 a 29.977,29.977 0 0 0 -2.8,19.1 c 0.9,5.2 4,7.3 3.3,12.8 -0.8,6.5 -2.4,13 -2.7,19.5 a 46.884,46.884 0 0 1 -0.8,8.4 c -0.4,1.7 -1.7,4.9 -1.6,6.6 0.1,1.1 1.2,1.6 1.2,2.6 0,0.9 -1,0.8 -1.1,1.5 -0.2,2.2 -0.3,4.3 -0.3,6.5 0.1,3.1 -0.2,6.1 -0.1,9.2 0.1,2.3 -0.5,7.8 2.2,6.9 a 13.77,13.77 0 0 0 -1,4.8 c 0,-0.2 -0.1,-0.3 0,-0.5 a 11.257,11.257 0 0 1 1,-4.3 l -1.5,0.5 c -0.9,2.4 0.2,4.7 0.5,7 v 0.7 a 68.19,68.19 0 0 0 0.3,10.1 c 0.6,7.8 0.9,16.4 3,23.4 2.3,7.6 1.6,17.2 2.5,25.7 1,9.6 2.7,19.1 3.9,28.7 1.1,8.6 1.6,17.9 3.5,26.2 1.5,6.8 2.8,13.5 3.7,20.7 1.1,10 4.8,17.5 8.8,26.6 1.7,3.8 1.8,3.8 -1.3,6.6 -1.3,1.2 -2.4,2.5 -3.7,3.7 a 16.38,16.38 0 0 1 -9,4 c -8.6,1 -17.2,4.1 -22.1,11.5 -4.7,7.1 -1.6,15.5 1.8,22.8 -4.6,0.4 -17,0.1 -14.1,8.5 2,5.7 12.6,3.8 17.3,3.9 6.8,0.1 13.7,-0.2 20.5,-0.3 3.1,0 3.4,-0.4 6.4,0.8 a 16.981,16.981 0 0 0 8.1,1 c 3.3,-0.2 6.5,0.3 9.7,-0.2 4,-0.6 6.5,-1.1 10.5,-0.4 a 24.474,24.474 0 0 0 8.1,-0.1 c 3.2,-0.4 6.2,-0.2 9.5,-0.3 7.7,-0.2 15.4,-0.1 23.1,0 7.5,0.1 15,-0.9 22.5,-0.6 13,0.6 26.2,0.1 39.3,0.4 6,0.1 10.7,3.6 16.7,3.3 6.1,-0.4 12.4,-0.4 18.5,-1.3 10.5,-1.5 20.6,-3.6 31.3,-4.1 6.7,-0.3 12.7,2.6 19,4.4 2.3,0.7 4.4,0.4 6.5,0.8 2,0.5 4.1,1.8 6.2,2.3 a 63.4,63.4 0 0 0 14.4,1.9 c 0.6,1.1 1.2,1.2 2,0.4 0.3,-0.2 0.6,-0.3 0.9,-0.5 1.4,-0.2 2.4,-0.8 3.9,-0.9 2.3,-0.1 4.6,0.2 6.8,0 a 68.23,68.23 0 0 1 13.6,-0.2 c 2.9,0.3 5.5,-0.1 8.4,-0.1 0,0 4,0.8 4,0.7 0.4,-0.1 0.9,-1.1 1.1,-1.2 -0.1,-0.9 0.2,-1.4 0.9,-1.3 0.5,-0.1 0.9,0.2 1,0.8 -0.2,0 1.2,0.7 1.3,0.7 0.1,0 3.7,-0.4 3.9,-0.5 1,-0.4 1.5,-1.5 2.3,-1.7 1,-0.2 1.6,0.9 2.4,0.8 1.9,-0.1 1.6,-0.9 3.1,-1.2 5,-0.9 11.2,0.3 16.4,0.3 5.2,0 10.3,-0.5 15.3,-0.7 6.1,-0.3 12.1,0.9 18.3,0.1 5.9,-0.8 11.8,-1.1 17.7,-1.4 12.4,-0.5 25.1,0 37.3,-1.4 12.8,-1.5 25.7,0 38.5,-0.2 13.5,-0.2 27,-0.4 40.5,-0.9 13.4,-0.5 26.8,-2.1 40.1,-2.5 3.4,-0.1 6.7,-0.9 10.1,-1.1 3.1,-0.2 6.1,0.3 9.3,0 5.7,-0.5 10.9,-0.1 16.6,-0.2 6.4,-0.1 12.6,-1.1 19,-1.5 6.4,-0.4 12.8,0.5 19.2,-0.8 3.3,-0.1 9.8,-4.9 5.3,-8.9 z"
         style="fill:#5fd35f;fill-rule:evenodd;fill-opacity:1"
         inkscape:connector-curvature="0" />
      <path
         id="ink-shape-2"
         data-name="ink-shape"
         d="m 438.737,107.029 v 0 a 0.1,0.1 0 0 0 -0.1,0.1 z"
         inkscape:connector-curvature="0"
         style="fill-rule:evenodd" />
      <path
         id="ink-shape-3"
         data-name="ink-shape"
         d="m 492.037,77.629 c 0.8,-2.8 -1.2,-4.8 -2.6,-7 -0.9,4.9 -3.3,4.7 2.6,7"
         inkscape:connector-curvature="0"
         style="fill-rule:evenodd" />
      <path
         id="ink-shape-4"
         data-name="ink-shape"
         d="m 343.636,183.029 c 0,0.1 0,0.1 0.1,0.2 0,-0.1 0,-0.2 -0.1,-0.2"
         inkscape:connector-curvature="0"
         style="fill-rule:evenodd" />
      <path
         id="ink-shape-5"
         data-name="ink-shape"
         d="m 321.337,179.329 c 0.2,0.4 0.6,3.3 0.9,3.3 2.6,0.1 -0.6,-4.7 -2.2,-5 -2.5,1.5 1.3,1.8 1.3,1.7"
         inkscape:connector-curvature="0"
         style="fill-rule:evenodd" />
      <path
         id="ink-shape-6"
         data-name="ink-shape"
         d="m 321.136,162.629 c -0.2,-2.2 -0.9,-2.5 -3,-1.4 0.7,1.4 1.4,1.2 3,1.4"
         inkscape:connector-curvature="0"
         style="fill-rule:evenodd" />
      <path
         id="ink-shape-7"
         data-name="ink-shape"
         d="m 292.136,109.129 c 1,0.2 2,0.3 3,0.5 -0.6,-1.3 -1.2,-2.7 -1.8,-4 -0.3,1.1 -0.8,2.3 -1.2,3.5"
         inkscape:connector-curvature="0"
         style="fill-rule:evenodd" />
      <path
         id="ink-shape-8"
         data-name="ink-shape"
         d="m 108.636,275.729 c 2.1,-3.5 6.1,-7.9 10.7,-6.4 4.3,1.4 5.5,7 7.3,10.5 3.6,6.8 4.7,-0.5 5.5,-4.7 -0.6,-8.3 -3.9,-21.9 -14.8,-20.4 -8.3,1.1 -15.5,14.5 -13.9,22.4 1.3,6.6 3.5,1.5 5.2,-1.4"
         style="fill:#ffffff;fill-rule:evenodd"
         inkscape:connector-curvature="0" />
      <path
         id="ink-shape-9"
         data-name="ink-shape"
         d="m 424.437,118.929 c -4.1,-1.5 -4.1,3 -4.2,6.3 -0.1,3.1 0.3,10.2 4.2,11.3 3.8,1.1 4.2,-5.2 4.8,-7.8 -1,-3.1 -1.5,-8.6 -4.8,-9.8"
         style="fill:#ffffff;fill-rule:evenodd"
         inkscape:connector-curvature="0" />
      <path
         id="ink-shape-10"
         data-name="ink-shape"
         d="m 429.136,112.229 c -3,-2.7 -5,-3.5 -8.8,-1.8 -2,0.9 -4.8,2.8 -5.1,5.2 -1,7.6 11.3,-1.8 13.9,-3.4"
         style="fill:#ffffff;fill-rule:evenodd"
         inkscape:connector-curvature="0" />
      <path
         id="ink-shape-11"
         data-name="ink-shape"
         d="m 429.837,157.429 c 7,1.8 7.4,-7.8 -0.3,-7.8 -5.3,0 -3.6,6.7 0.3,7.8"
         style="fill:#ffffff;fill-rule:evenodd"
         inkscape:connector-curvature="0" />
      <path
         id="ink-shape-12"
         data-name="ink-shape"
         d="m 376.337,127.629 c -2.6,0.4 -3.5,2 -3,4.6 0.6,3 2.3,3 5.2,3.3 7.1,0.1 2.5,-8.6 -2.2,-7.9"
         style="fill:#f9f9f9;fill-rule:evenodd"
         inkscape:connector-curvature="0" />
      <path
         id="ink-shape-13"
         data-name="ink-shape"
         d="m 438.237,111.429 c 0.6,1.8 4.2,2.6 6,1.9 2.2,-0.8 2.6,-2.8 0.7,-4.6 -1.7,-1.6 -4,-1.1 -6.1,-1 0,0.7 -1,2.6 -0.6,3.7"
         style="fill:#ffffff;fill-rule:evenodd"
         inkscape:connector-curvature="0" />
      <path
         id="ink-shape-14"
         data-name="ink-shape"
         d="m 218.737,315.629 c 3.3,0 0.2,-5.6 -2.6,-6 0.1,1.7 0,6 2.6,6"
         inkscape:connector-curvature="0"
         style="fill-rule:evenodd" />
    </g>
  </g>
</svg>
