<?xml version="1.0" encoding="UTF-8" standalone="no"?>
<!-- Created with Inkscape (http://www.inkscape.org/) -->

<svg
   xmlns:dc="http://purl.org/dc/elements/1.1/"
   xmlns:cc="http://creativecommons.org/ns#"
   xmlns:rdf="http://www.w3.org/1999/02/22-rdf-syntax-ns#"
   xmlns:svg="http://www.w3.org/2000/svg"
   xmlns="http://www.w3.org/2000/svg"
   xmlns:sodipodi="http://sodipodi.sourceforge.net/DTD/sodipodi-0.dtd"
   xmlns:inkscape="http://www.inkscape.org/namespaces/inkscape"
   width="210mm"
   height="297mm"
   viewBox="0 0 210 297"
   version="1.1"
   id="svg8"
   inkscape:version="0.92.5 (2060ec1f9f, 2020-04-08)"
   sodipodi:docname="manAndDog.svg">
  <defs
     id="defs2" />
  <sodipodi:namedview
     id="base"
     pagecolor="#ffffff"
     bordercolor="#666666"
     borderopacity="1.0"
     inkscape:pageopacity="0.0"
     inkscape:pageshadow="2"
     inkscape:zoom="0.35"
     inkscape:cx="-67.142857"
     inkscape:cy="560"
     inkscape:document-units="mm"
     inkscape:current-layer="Illustrations_Doggie"
     showgrid="false"
     inkscape:window-width="1366"
     inkscape:window-height="713"
     inkscape:window-x="0"
     inkscape:window-y="30"
     inkscape:window-maximized="1" />
  <metadata
     id="metadata5">
    <rdf:RDF>
      <cc:Work
         rdf:about="">
        <dc:format>image/svg+xml</dc:format>
        <dc:type
           rdf:resource="http://purl.org/dc/dcmitype/StillImage" />
        <dc:title></dc:title>
      </cc:Work>
    </rdf:RDF>
  </metadata>
  <g
     inkscape:label="Camada 1"
     inkscape:groupmode="layer"
     id="layer1">
    <g
       data-name="Illustrations/Doggie"
       id="Illustrations_Doggie"
       transform="matrix(0.26458333,0,0,0.26458333,-14.431602,59.391746)">
      <path
         d="m 825.941,639.491 c 5.1,2.6 9.9,2.6 15,4.7 5,2 6.3,10.5 10.6,11.5 -19.8,2.1 -39.4,6.5 -59.5,4.3 1.7,-7.1 -1.4,-14.3 2.8,-21 11.2,-10.6 18.5,-6.1 31.1,0.5 z m -83.7,-487 c 0.3,5 0.6,7 4.2,10.2 2.8,2.5 4.3,-1.2 4.6,3.7 0.2,2.8 -2.8,4.3 -3.9,6.6 -5.7,11.4 -1.8,26.2 1,37.6 5.7,23.1 19.5,48.2 9.8,71.6 -1,2.4 -1.8,7.5 -3.7,9.3 -2.5,-1.3 -4.3,-0.7 -5.5,1.7 -0.7,0.8 -1.4,1.6 -2.1,2.3 -4.4,4.1 -9.1,5.6 -14.9,3.4 -11.7,-4.3 -13.7,-18 -13.7,-28.7 -0.1,-11.8 2.4,-24.2 5.1,-35.7 1.3,-5.5 3.3,-12 -0.4,-17.2 -3.5,-4.9 -7.8,-2.2 -11.3,-4.4 -3.7,-2.3 1.6,-19.6 -2,-24.2 -6.3,-8 -8.5,11.6 -8.6,15.5 -0.1,4.4 0.1,9.5 2.2,13.4 1.6,3.1 6.9,5.8 7.8,9 0.8,2.9 -2.9,10.6 -3.4,13.7 a 104.433,104.433 0 0 0 -1.4,14.7 c -0.9,16.6 1.8,34.1 13.2,47 5,5.7 13.5,12.1 21.5,11.1 7,-0.9 14.1,-4.7 20.6,-7.3 4.4,16.9 11,33.3 18.1,49.3 6.1,13.9 11.9,28.1 18.3,41.9 13.6,28.9 35.6,53.6 52.8,80.3 16.6,25.8 25.9,55.5 28.2,86 0.5,7.2 -1.6,17.1 0.1,23.8 1.6,6.3 3,9.1 1.9,16 -1.1,7.7 -3.4,14.7 -2.4,22.5 0.8,6.9 4.1,17.2 0.5,23.6 -4.3,-4.6 -8.6,-6.8 -11.3,-12.9 -2.7,-6.2 -1.6,-11.4 -7.7,-14.1 -5.2,-2.3 -8.9,-1.8 -13.4,-5.7 a 43.3,43.3 0 0 1 -12,-17 50.232,50.232 0 0 1 -1.4,-35.4 c 3.2,-9.4 12.4,-26.9 25.3,-20.6 -1.9,-3.9 -3.2,-8.2 -6.9,-10.8 -3.2,-2.2 -8,-3 -11.5,-5.5 a 85.757,85.757 0 0 0 -12.9,-7.9 51.728,51.728 0 0 0 -5.1,-1.8 c -2.1,-0.7 -6.2,-0.2 -6.5,-0.2 -7.6,-1.2 -16.1,-4.8 -20.8,-10.4 a 88.841,88.841 0 0 1 -9.3,-12.8 c -3.5,-6.2 -4.8,-5.8 -11.5,-7.3 -9.7,-2.1 -15.8,-3.6 -23.6,-10.8 -8.6,-8 -14.9,-17.9 -21.2,-27.7 -3.7,-5.7 -6.9,-6.1 -12.9,-8.4 -3.5,-1.3 -8.3,-7.3 -11.5,-7.7 -0.9,-0.1 -5.3,1.9 -6.8,2.1 a 27.692,27.692 0 0 1 -7.6,0.1 c -6.1,-0.6 -11.5,-2.3 -15.6,-7 -12.6,-14.7 -16.5,-49.4 0.8,-61.9 3.3,-2.4 7.9,-3.5 9.8,-7.4 2.2,-4.5 1.2,-13.1 1,-17.9 a 156.309,156.309 0 0 0 -1.3,-16.8 22.556,22.556 0 0 0 -1.7,-6 c -2,-4.9 -2.6,-4.2 -6.7,-5.4 -5.9,-1.7 -8.6,-1 -12.2,-6.6 -2.9,-4.5 -4.2,-10.1 -4.5,-15.4 -0.2,-4.9 2,-9.5 0.1,-13.9 -2.7,-6.5 -7.7,-11.5 -10,-18.6 -1.9,-6 -6.7,-19.4 -1.9,-25 2.1,-2.5 5.9,-2.9 8,-6.2 3.7,-5.8 5.1,-9 10.6,-13.5 4,-3.4 7.9,-8.4 12.7,-10.4 4.8,-2 9.2,1.2 13.1,0.3 4.2,-1 3.1,-10.7 4.3,-15.1 a 44.463,44.463 0 0 1 9,-16.7 c 1.4,-1.5 3.1,-1.8 4.1,-3.9 1.4,-2.8 0.9,-6.7 2,-9.8 1.3,-3.6 4.6,-9.9 8.2,-11.9 10.9,-5.8 14.1,9.2 22.2,7.2 z m -24.9,430.3 c 1.5,4 0.7,10.5 2.4,14 1.4,2.8 6.9,4.5 9.6,7.8 5.8,7.1 8,18.4 5.9,27.2 -7.1,-1.8 -11.8,-2.9 -19,-1.9 -0.8,-15.8 -0.1,-31.2 1.1,-47.1 z m -87.7,12 c 4.8,5.4 7.2,11.7 6.5,18.9 a 41.077,41.077 0 0 1 -1.8,8.6 c -0.8,2.7 -4.9,7.8 -3.3,9.2 -4.5,-0.3 -9.8,0.3 -13,-2.7 -2.9,-2.6 -4.9,-9.3 -6.1,-12.9 2.3,-4.5 4.5,-9.1 6.8,-13.6 1.5,2.3 5.8,8.5 9.4,6.5 2.7,-1.5 0.5,-11.1 1.5,-14 z m 169.4,-42 c 5.5,5.1 7.4,14.4 7.1,21.6 0.1,9.9 -3.3,29.7 -16.2,30.4 -10.3,0.5 -21.4,-14.3 -22.5,-23.4 -1.3,-10 2,-34 15.2,-36.1 4.8,-0.8 12.9,4.3 16.4,7.5 z m -92.5,12.8 a 175.7,175.7 0 0 1 -0.2,19.2 c -0.4,5.4 1,11.8 -0.2,17 -7.7,-8.6 -17.7,-17.9 -17.4,-30.5 0.3,-11.9 10.2,-10.9 17.8,-5.7 z m -77.1,-143 6.4,7 c 0.2,9.9 0,19.6 3,29.1 3.2,10 8.5,19.7 13.7,28.7 10.2,17.6 12.6,34.2 13.8,54.3 -19.2,-8.6 -29.6,-37.9 -35.9,-56.3 -3.3,-9.7 -6.8,-19.4 -10,-29.2 -3.1,-9.6 -8.6,-22.2 -5,-32.4 7,5.2 10,7.8 14,-1.2 z m 119.5,69.2 c 9.4,7.4 10.1,18.8 13.4,29.2 a 51.813,51.813 0 0 0 -5.8,4.7 c -1.1,1.1 -3.6,5.6 -4.5,6 -3.3,1.8 -6.2,-0.5 -9.4,-3.5 -6.4,-5.8 -10.4,-18.2 -10.1,-26.7 0.3,-9.9 7.4,-16.8 16.4,-9.7 z m 130.9,-43.7 c 12.2,7 9,26.2 7.5,37.1 -1,6.8 1.2,13.8 1,20.2 -0.2,7.3 -4,5.8 -6.4,10.3 -2.1,-5.5 -6,-12.1 -6.9,-17.9 l -1.4,-3.7 a 2.772,2.772 0 0 0 1.9,-2.5 60.733,60.733 0 0 0 0.6,-8.5 294.61,294.61 0 0 1 3.7,-35 z m -185.3,13 c -1.3,5.1 -2.3,14.8 -9.9,11.8 -6,-2.4 -7.4,-11.8 -7.4,-17.1 0,-4.3 0.7,-12.3 6.8,-12.6 7.4,-0.3 10,12.9 10.5,17.9 z m -57.6,-142.9 c -5,8.1 -8.5,20 -6.1,29.5 2.5,10 10.3,12.4 17.2,5.1 5.7,9 -6,24.9 -16.4,16.4 -2.3,-1.8 -3.8,-5.4 -6.6,-6.5 -2.3,-0.9 -4.3,0.3 -6.7,-0.2 -7.2,-1.6 -9.9,-8.7 -12.7,-14.6 0.8,-4.8 1.6,-9.6 2.6,-14.4 0.6,-2.5 1.1,-5.1 1.7,-7.6 1,-4.3 0.7,-3.8 3.8,-5.9 8.2,-5.7 13.9,-6 23.2,-1.8 z m 4.3,4.4 6,13.4 c -3.3,-0.8 -6.9,9.1 -9,11 -1,-8.2 1.4,-16.4 3,-24.4 z m -3.4,-45.9 c 5.5,2.3 6.5,12.3 6.7,17.1 -1.5,5.1 -2.9,11.6 -9.2,8 -4.2,-2.4 -6,-10.2 -6.2,-14.5 -0.2,-5.4 1.9,-13.5 8.7,-10.6 z"
         id="Accent"
         inkscape:connector-curvature="0"
         style="fill:#00a900;fill-rule:evenodd;fill-opacity:0.96237475" />
      <g
         id="Ink">
        <path
           d="m 596.941,160.091 c -2.2,1 2,8.6 2.7,10 1.7,3.6 3.9,11.1 8,9 -3.5,-6.3 -7.1,-12.7 -10.7,-19 m -528,438.3 c -3,-1.3 -7,10.1 -7.6,12.5 -1.5,6.5 -0.2,10.9 5,15.1 -2.2,-9.3 0.4,-18.6 2.6,-27.6 m 694.3,-491.3 c -3.7,-4.9 -9.1,-13.9 -16.7,-9.1 -3,1.9 -5.3,7.9 -7.1,10.9 a 108.156,108.156 0 0 0 -7.9,14.1 c 3.7,-1.5 5.9,-4.9 9.3,-6.7 2.3,-1.2 4.4,-1.4 6.6,-2.3 4.8,-2.1 11.5,-4 15.8,-6.9 m -609.9,478.4 c 2,7.9 3.9,15.8 5.5,23.8 1.1,5.4 4.6,13.1 2.8,18.4 4.8,-0.6 9.6,-1.3 14.4,-1.9 -3.6,-8.1 -5.4,-16.8 -6.5,-25.6 -0.6,-5.4 0.2,-6.9 -3.9,-9.9 -3.1,-2.2 -8.6,-3.4 -12.3,-4.8 m -26.6,-303.2 c 9.2,9.3 17.3,19.8 27.2,28.4 5.1,4.5 10.3,8.8 15.6,13.2 4.4,3.7 11.5,11.7 17.3,12.9 0.7,-3 2.4,-7.8 2,-10.8 1.7,-1.7 1.2,-3 -1.6,-3.8 -1.7,-1.3 -3.3,-2.6 -5,-3.9 -6.4,-5.4 -12.5,-11.2 -18.6,-16.9 a 180.218,180.218 0 0 1 -16.9,-18.1 c -2.8,-3.4 -4.4,-6.8 -8.9,-7.8 -5.5,-1.4 -7.3,2.8 -11.1,6.8 m 184.9,343.8 c -0.3,5 12.1,8.1 15.9,8.4 10.2,0.8 16.8,-3.6 20.3,-12.4 7.3,-18.3 18.9,-34.4 23.8,-53.6 1.4,-5.7 2.7,-8.3 -2.5,-11.2 -2.1,-1.2 -7.6,-3.9 -9.9,-2.3 -2.2,1.4 -4,7.9 -5.4,10.3 -2.2,3.8 -4.8,7.3 -7.2,11 -11.4,16.8 -22.8,33.4 -35,49.8 m -146.9,-251.9 47.5,27.2 c 2,-6.8 2.9,-14 4.7,-20.9 1.3,-4.9 4.7,-11.8 4.5,-16.1 -0.3,-6.4 -5.3,-14.9 -7.5,-21.1 -2.7,-7.6 -5.4,-15.3 -8.1,-22.9 -3.7,3.5 -7.9,5.9 -7.9,10.5 0,2.6 1.7,4.2 0.7,7.2 -0.7,2.1 -3.7,4.8 -5.2,6.4 -4.2,4.5 -4.1,4.7 -8.6,0.5 -6.6,9.7 -13.3,19.4 -20.1,29.2 m 52.3,127.3 a 177.921,177.921 0 0 1 3,-19.2 c 0.9,-3.9 4.7,-12 3.5,-15.8 -0.9,-2.7 -6.4,-5.1 -8.6,-6.6 -6.2,-4.3 -12.2,-8.8 -18.4,-13.2 -5.4,-3.8 -10.8,-7.6 -16.1,-11.6 -4.9,-3.7 -8.6,-8.3 -14.5,-9.9 -5.2,-1.4 -11.7,-0.5 -17.1,-0.7 -7.2,-0.2 -14.5,-0.3 -21.7,0 -24.1,1.2 -51.1,-0.5 -74.2,6.2 -11,3.2 -18,5 -24.1,15.4 a 275.287,275.287 0 0 0 -18.3,37.4 c -0.8,1.9 -2.5,4.6 -2.4,6.7 0.1,3.9 1.5,3 5.3,5.3 4.1,2.4 8.1,5.3 12,8.1 a 218.082,218.082 0 0 0 22,13.3 c 8.4,4.4 16.8,8.4 25.3,12.8 5.4,2.8 11,5.1 16.3,8.2 5.7,3.4 12.2,4.3 18.4,6.9 19.2,8.1 37.7,15.6 56.5,24.9 18.4,9 36.9,16.7 55.7,24.6 24.3,10.3 48.3,19.8 73.6,27 1.9,0.5 5.8,2.4 7.6,2.3 3.9,-0.2 4.8,-3 7.2,-6.3 4.6,-6.3 9.1,-12.8 13.5,-19.3 9.6,-14 19,-28.3 29.3,-41.8 -29.3,-8.2 -56.4,-23.2 -82.1,-38.7 -1.1,3.1 -2,9.9 -5.5,10.9 -4.3,1.3 -7.5,-4.7 -9.4,-7.5 -1.8,4.6 -5,20 -10.9,19.7 -8.1,-0.5 -6.7,-13.3 -7.7,-18.4 -4.5,6 -9.7,12.8 -15.8,3.7 -4.1,-6.1 -3.7,-17.3 -2.4,-24.4 m 339,-73 c -3.8,-1.2 -7.5,-2.2 -11.2,-3.5 -1,-2.1 -2.6,-2.7 -4.8,-1.9 a 12.614,12.614 0 0 1 -5.4,-0.7 206.719,206.719 0 0 1 -23.6,-5.2 c -6.6,-2 -12.7,-3.7 -19.4,-5.2 -4,-0.9 -21.6,-5.9 -24.2,-2.9 -0.8,0.9 0.6,11.8 0.4,13.8 -0.3,3.5 -0.5,9.2 -2.7,12.1 -0.8,1.1 -4.1,2.3 -5.2,3.2 -3.8,2.8 -7.3,6.3 -11,9.2 -8.2,6.3 -16.2,12.9 -24.5,19.1 -5.9,4.3 -12.7,6.5 -19.2,9.6 4.7,0.8 13.8,-3.7 18.5,-5 6.1,-1.8 12.1,-3.8 18.3,-5.5 12.8,-3.4 25.9,-7.2 38.9,-10.8 8,-2.2 16.4,-4.5 24.2,-7.5 3.4,-1.3 6.1,-4.3 8.4,-1.2 1.8,2.5 -0.4,5.7 -1.8,7.5 -8.1,10.6 -30.2,13.2 -41.9,17.6 -13.3,5 -26.4,10.2 -40.2,13.7 -16,4.1 -33.4,7.2 -48.3,14.4 -12.4,5.9 -26.4,8.2 -39.6,11.7 -12.4,3.3 -27,3.9 -38.7,9.5 5,4 12.5,6.1 18.4,8.7 7.2,3.3 14.5,6.3 21.6,9.7 3,1.5 6.2,3.7 9.3,4.9 3.9,1.6 3.4,0.7 7.4,0.4 6.3,-0.5 14.7,-1.6 19.8,2.9 6.1,5.5 2.2,11.5 3.1,18.2 0.6,4.6 0.9,3.9 6.1,4.6 q 7.05,0.9 14.1,2.4 c 5.7,1.2 11.6,3.3 17.2,5.1 8.7,2.8 9.6,6.1 18.6,2.5 25.7,-10.3 52.3,-18.7 78.2,-28.4 11.9,-4.5 23.9,-13.1 35.1,-19.6 14.4,-8.3 27.4,-17.3 37.2,-31.1 4.4,-6.3 9.1,-17 8.1,-24.8 -0.8,-7 -6,-14.8 -9.4,-20.8 -4.3,-7.7 -8,-10.7 -14.5,-15.8 -4.6,-3.5 -11.6,-11 -17.3,-10.9 m -286.5,59.4 c 0.4,3.9 -1.9,19.8 0.4,22.2 3.8,4.2 13.2,-0.7 16.8,-1.9 11.8,-4.1 25.5,-3.2 37.5,-6.4 11.6,-3.1 23,-7.1 34.8,-10.3 6.3,-1.7 12.2,-4.4 18.4,-6.4 6.9,-2.3 14.6,-3.5 20.9,-6.9 -0.8,-2 -28.4,2.8 -31.5,3 -10.9,0.9 -21.2,-0.8 -31.9,-2.8 -23.7,-4.4 -46,-14.7 -69.4,-21.4 1.1,10.8 31.5,12.9 27.8,25.5 -1,3.5 -14.6,9.2 -19.1,7 -9.1,-4.4 2,-10.7 6.6,-12.3 a 185.388,185.388 0 0 1 -19.9,-13.2 c -6.8,-5.2 -9.7,-12.6 -13.3,-20.2 -7.6,-15.8 -25.5,-25.1 -39.4,-34.9 -15.1,-10.7 -31.1,-19.7 -46.2,-30.4 -2.7,-1.9 -3.9,-1 -4.9,-4.5 -1,-3.7 2.7,-8.4 4.5,-11.3 a 117.215,117.215 0 0 1 16.5,-20.7 c -8.1,-5.5 -16.8,-10 -24.3,-16.2 -7.7,-6.3 -14,-14 -20.8,-21.2 -10.8,23.5 -25.9,45.3 -37.8,68.4 -4.7,9.1 -7.2,22.9 0,31.7 7.5,9.3 21.5,5.7 32.1,6.2 a 134.789,134.789 0 0 1 32.5,5 c 5,1.4 9.5,1 14.3,3.3 5.6,2.7 11.2,6.2 16.5,9.4 10.5,6.3 20.4,14.2 30.3,21.4 4.1,3 26.2,20.5 8.7,17.8 0,16.4 -2.9,33.1 -4.4,49.4 a 59.213,59.213 0 0 0 9.6,-16 c 1.5,-3.5 1.5,-12.6 6.5,-10.4 7.5,3.2 1.7,26.9 1.7,33.3 a 77.043,77.043 0 0 0 4.5,-11.2 c 1,-2.9 2.3,-11 4.4,-13 7.1,-6.5 8.1,11.2 8.1,14.8 2.3,-6.5 2.7,-13.4 2.9,-20.3 0.1,-2.7 -0.6,-6.9 0.1,-9.5 1.1,-4.4 1,-4.1 5.6,-5.9 0.4,3 0.6,6 0.9,8.9 m 218.4,138.2 c 0.6,5.5 2.7,9.6 -0.9,14.5 7,-0.5 14,-1.1 21,-0.9 5.7,0.1 14.1,1.4 19.4,-1 2.2,-1 2.9,0.7 4,-1.2 1.1,-1.8 -1.4,-7.7 -1.7,-9.2 -1.4,-7.1 -2.1,-14.4 -3.4,-21.5 -0.9,-4.9 -3.5,-14.5 -0.2,-19.2 4.8,-6.8 7,2.8 8.2,7 4.1,14 3.9,27.4 3.9,41.8 6.2,0 14.4,-2.7 20.4,-4.4 8.3,-2.3 17.2,-4.6 25.2,-7.6 7.6,-2.8 14.3,-6.9 19.1,-13.4 3.6,-4.9 11.5,-17 9.6,-22.4 -2.4,-6.6 -14,-11.2 -20.1,-12 -8,-0.9 -16.2,0.7 -24.4,1.3 -8.8,0.7 -17.3,2.7 -25.9,3.6 -8.4,0.9 -19.7,3.7 -27.9,1.6 -0.2,3.4 2.6,7.9 3.6,11.3 1.3,4.5 2.4,9 3.5,13.6 1.1,4.9 8,22.4 1.7,25.9 -7.4,4.1 -10.9,-13.5 -11.8,-17.8 -2.2,-10.2 -4.1,-20.5 -1.8,-30.7 -9.4,-1.7 -20.8,0.8 -30.5,1.5 3.5,13 5.8,26.3 9,39.2 m -405.8,5.6 c 3.3,1.5 7.8,0.7 11.3,1 5.6,0.4 11.2,1.4 16.8,1.3 8.5,-0.3 17.5,-1.4 26.1,-2.3 -4.9,-8.8 -7.8,-17.1 -8.4,-27.2 -0.2,-3.6 -2.1,-26.1 4.5,-25.1 3.2,0.5 2.5,19.7 3.2,23.2 0.9,5.1 2.1,10.4 3.5,15.4 1,3.6 4.6,9.1 3.7,13 l 12.9,-2.1 a 68.854,68.854 0 0 1 -7.1,-20.1 c -0.6,-3.6 -0.2,-8.1 -1.4,-11.5 -0.7,-2.2 -2.4,-4.2 -2.7,-6 -0.3,-2.1 2,-7.2 1.2,-9.1 -0.8,-1.8 -6.6,-3.5 -8.6,-4.5 -5.6,-2.8 -8.9,-3.5 -15.1,-1.9 -12.1,3.1 -31.1,5.2 -40.1,13.5 -8.9,8.1 -12.1,35.7 0.2,42.4 m 526.9,-399.4 c 3.3,-0.4 6.6,-0.6 10,-0.8 a 208.249,208.249 0 0 1 -13.4,-21.5 q -3,-5.4 -5.7,-11.1 c -2.1,-4.3 -2,-7.1 -6.5,-7.9 -6.2,-1.2 -14.5,1.2 -20.9,0.9 -4.9,-0.2 -16.1,-4.9 -20,-3.2 3.6,7.4 0.7,19 0.9,27 a 115.6,115.6 0 0 1 -2.3,23.5 c 8.5,0 19.1,-2.9 27.7,-4.2 9.9,-1.5 20.1,-1.6 30.2,-2.7 m -134.7,409.2 a 78.786,78.786 0 0 1 9.7,-0.5 c -7.4,-12.1 -13,-25.5 -13.1,-39.9 0,-1.9 2.3,-12.7 1.5,-13.6 -1.5,-1.7 -7.5,-0.4 -9.2,-0.2 -6.8,0.7 -14.3,0.6 -20.7,3.1 -4.4,1.7 -4.4,0.7 -6.2,5.8 a 33.227,33.227 0 0 0 -1.8,9.8 51.412,51.412 0 0 0 4.7,20 c 2.6,5.6 6.6,11.6 12.1,14.6 6.5,3.3 15.5,1.3 23,0.9 m 67.6,-447.8 c -1.3,-4.8 -0.7,-3.7 -5,-4.3 -0.9,-0.1 -10.7,0.1 -11.3,0.7 -0.6,0.7 -0.4,10.4 -0.5,11.6 -0.3,3.8 -0.7,7.7 -1.1,11.5 -1.7,15.5 -4.9,30.5 -7.3,45.9 6,-3.7 14.6,1.3 19.7,-2.7 4,-3.2 3.4,-13.3 3.7,-17.8 1,-14.9 1.3,-29.9 1.8,-44.9 m 215.2,-18.1 c -0.5,0.9 -1.1,1.7 -1.6,2.6 2.1,1.3 14.3,-12.2 17,-14.7 3.6,-3.2 9.3,-7.6 10.9,-12.3 1.9,-5.5 0,-14.2 -0.4,-19.8 -0.3,-4.1 0.4,-9.7 -2.9,-12.5 -3.1,-2.6 -10.6,-2.5 -14.2,-2 -10.8,1.7 -17.4,10.6 -22.8,19.1 5.6,-0.7 25.1,-9.6 27.4,-4.8 3.3,7 -17.3,13.3 -19.3,19.5 4.2,1.5 13.5,-4.3 10.9,5.3 a 6.431,6.431 0 0 1 -2.3,3.3 c -1.9,0.7 -2.4,2 -1.4,3.8 -0.9,3.8 -0.7,8.5 -1.3,12.5 m 124.8,340.2 c 0.1,2.3 0.3,4.5 2.1,6.1 4.1,-13.1 5.4,-26.2 7.1,-39.8 1.7,-13.6 3.5,-27.5 3.8,-41.1 a 263.978,263.978 0 0 0 -3.6,-46.9 c -1.9,-11.8 -3.4,-26.2 -10.4,-36.3 4,26 2.7,50.6 0.1,76.6 -1.4,13.8 -3.4,27.5 -4.4,41.4 -0.2,3.7 -0.3,7.4 -0.6,11 -0.2,2.2 -2.3,6.2 -2.3,7.3 -0.2,6 6.1,16.3 8.2,21.7 m -212,-20.2 c 3.3,7.6 7.1,15.1 9.1,23.2 2.1,8.6 1.2,16.5 1.5,25.2 0.6,14.4 -0.6,28.7 -0.4,43.1 0.2,12.3 -0.3,24.3 -0.2,36.4 0.1,7.7 -0.3,15.3 -0.3,23 0,0 0.3,6.9 -0.2,7.2 -2.4,1.6 -5,-0.7 -5.7,-2.8 l -7,8 c 3.7,-0.9 8.2,-2.9 12,-3 a 6.349,6.349 0 0 1 4.3,0 8.562,8.562 0 0 1 3.2,3.6 c 9.9,2.1 15.9,-6.7 17.7,-14.6 3.9,-17.1 2.5,-34.1 2.2,-51.4 -0.6,-37.6 5.4,-75 4.8,-112.6 -0.1,-7.3 -0.4,-14.5 0.7,-21.7 2,-13.5 5,-1.1 5.5,5.2 1.4,19.1 4,38.9 2.6,58.1 -1.2,17.4 -1.1,34.9 -2,52.3 -0.9,18.5 -2.4,36.6 -1.5,55.1 5,-0.6 20.9,-1.6 22.6,5.4 1.5,6.1 -4.4,3.8 -7.4,3.6 -4.9,-0.4 -9.7,0.7 -15.1,-0.2 0.4,8.2 1.5,19.2 -5.8,24.7 -3.6,2.7 -9.6,5.2 -13.8,6.8 -4.1,1.6 -11.1,5.1 -15.4,4.9 -3,-0.1 -4.2,-1.8 -7.5,-1.5 -4.9,0.4 -9.2,3.7 -14.5,1 -9.9,-5.2 -5.1,-20.2 1.2,-26.3 1.6,-1.6 3.4,-3.3 5.6,-4 1,-0.4 5.4,0.1 5.8,-0.5 1.8,-2 -0.5,-13.7 -0.7,-15.9 -1.3,-11.6 -2.7,-23.5 -3.2,-35.2 -0.5,-11 -1.1,-22 -1.4,-32.9 -0.1,-2.4 1,-7.3 0,-9.4 -1.7,-3.5 -9,-5.7 -12.1,-7.3 2.8,27.7 7,57.4 -3.2,83.7 -2,5.2 -4.3,12.7 -9.5,15.6 -4.9,2.7 -16.3,2.4 -22.1,2.7 -6.2,0.4 -12.4,-1.1 -15.8,-7 -2.7,-4.6 -1.1,-10.2 4.5,-12.2 3.3,-1.2 4,-0.4 6.9,1 a 9.5,9.5 0 0 1 1.3,3.3 h 2.2 c 3,1.4 15.2,2.9 18.5,0.7 3.9,-2.5 4.7,-9.3 6.4,-13.3 3.1,-7.5 3.9,-13.5 5,-21.5 1.7,-12.5 0,-27 0,-40.1 v -11 c 0,-5.5 0.5,-5.5 -2.7,-9.5 -4.8,-6 -10.2,-12.2 -15.3,-17.9 2.8,16.8 1.6,34.6 0.5,51.4 -0.6,9.4 -1.9,19 -2.5,28.3 -0.2,2.8 1.8,10.5 -1.4,11.7 -3.3,1.3 -7.4,-4.6 -8.7,-6.7 -7.3,14.5 -15.9,28.5 -30.9,36 -7.7,3.9 -15.7,5.6 -24.1,7.1 -7.8,1.4 -15,4 -22.7,5.2 -15.9,2.5 -30.5,2.8 -46.5,2.3 -15.1,-0.5 -29.5,2.3 -44.6,-1.2 -5.9,-1.4 -11.8,-3.9 -15.8,-8.4 -2.2,-2.5 -3.2,-6.3 -5.4,-8.6 -0.5,-2.9 -2.2,-3.8 -5.2,-2.7 a 33.326,33.326 0 0 1 -5.5,-0.2 c -15.1,-0.8 -31.9,0.1 -46.5,-4.2 -5.5,-1.6 -11.7,-4.3 -9,-11.3 2.4,-6.1 9.1,-4.2 14.6,-3.7 15.9,1.5 31.6,4.4 47.7,5.8 -0.5,-8.4 -0.1,-17 3.2,-24.9 -11.2,-1.4 -22.8,-3.5 -33.4,-7.1 -3.3,-1.1 -6.6,-2.3 -9.8,-3.4 -5.4,-1.9 -4.3,-2.4 -7.4,0.9 -3.9,4.3 -6.3,13.2 -9.1,18.3 a 193.409,193.409 0 0 0 -8.9,17.6 c -2.5,5.7 -4.4,13.4 -8.3,18.3 -8.5,10.9 -28.2,11.8 -39.8,7.5 -5.7,-2.1 -7.7,-2.4 -11.2,-7.5 -3.8,-5.6 -4.7,-5.9 -11.7,-6.7 a 149.024,149.024 0 0 1 -36.1,-8.9 c -12.4,-4.6 -25.2,-8.2 -37.5,-13.1 -11.6,-4.6 -22.8,-9.3 -34.8,-12.9 -1.4,9 4.5,19.2 4.5,28.6 7,-0.7 13.5,-1.3 20.4,-2.4 2.5,-0.4 18,-3.9 19.5,-1.8 6.3,8.6 -22.4,12.6 -26.9,13.7 -14.4,3.6 -29.1,7 -43.6,9.8 -14.8,2.9 -29.2,5.7 -44.2,6.2 -25.4,0.9 -60.5,-0.6 -59.2,-34 0.5,-13.1 5.9,-27.3 16.2,-35.8 6.4,-5.3 14.4,-8.2 22.3,-10.6 2.9,-0.9 18.2,-3 18.6,-4.1 -4.3,-3.1 -11.7,-3.9 -16.8,-6.3 -4.9,-2.3 -10,-3.1 -15,-5.4 a 266.848,266.848 0 0 1 -28.8,-15.8 221.782,221.782 0 0 1 -21.5,-14.8 c -5.4,-4.2 -10.5,-8.3 -14.8,-13.2 -2.2,-2.5 -6.2,-4.8 -8,-7 -6.3,-7.7 0.3,-22.9 3,-31.8 3.9,-13 9.1,-26.9 16.9,-38.2 7.1,-10.4 15,-17.4 27.7,-19.8 11.7,-2.2 23.6,-3 35.6,-3.6 -2,-7.7 -4.9,-13.1 -4.1,-21.5 0.7,-7.9 4.7,-15.8 7.8,-23.1 5.9,-13.4 11.4,-26.6 19.4,-39 4.4,-6.8 9.3,-13.3 14.1,-19.8 0.8,-1.1 5.6,-5.9 5.4,-7.2 -0.2,-1.3 -5,-5.4 -5.8,-6.4 -5,-6.3 -8.4,-13.1 -2.6,-19.9 3,-3.5 12,-10.6 16.3,-6.2 4.7,-9.4 12.8,-15.8 19.1,-23.8 7.9,-10 15.4,-20.1 22.8,-30.6 7.4,-10.4 13.4,-21.6 23.1,-30 10.9,-9.3 21.1,-8.5 34.5,-4.5 0.8,-5.2 1.8,-4.5 6.8,-6.2 3.8,-1.3 7.4,-2.8 11.2,-4.3 a 119.225,119.225 0 0 1 12,-3.7 c 5.4,-1.6 6.2,-1.1 7.1,-8.1 1.1,-8.4 -2.6,-17.3 -4.9,-25.3 -1.1,-3.9 -1.9,-8.8 -4.5,-11.4 -2.3,-2.4 -6.5,-3.5 -9,-6.1 -22,-22.7 -22.4,-71.2 1.1,-92.3 4.6,-4.1 8.3,-9.6 14,-12.4 a 98.209,98.209 0 0 1 21.3,-6.9 c 14.1,-3 30,-2 41.2,7.9 5.5,4.9 8.9,12.7 10.8,19.7 1.8,6.7 1.4,17.9 -5.4,7.6 -4.3,-6.5 -8,-13.1 -15.3,-16.3 a 45.411,45.411 0 0 0 -21.5,-3.8 c -16.7,1.4 -30.2,6.3 -41.7,18.7 -12.8,13.6 -13.4,35.4 -10.7,52.8 2.4,-5.1 4.1,-13.3 10.9,-14.2 5.7,-0.8 14.6,6.4 11.6,12.6 -13.8,-3.5 -17.8,17.3 -5.9,18.6 3.6,0.4 8.2,-6 11.5,-4.6 6.2,2.8 -2.1,12.4 -3.8,15.6 -0.9,0.5 -1.7,1.1 -2.6,1.6 0.9,2 1.7,4 2.6,6 1.1,2.5 2.1,5.1 3,7.7 a 145.1,145.1 0 0 1 6,19.4 c 1.4,6.7 2.1,14.5 -1.2,20.7 -3.6,6.9 -7,6 -9.8,-0.5 -7.3,4.6 -14.6,9.5 -23.1,11.3 9,15 20.6,28 38,32.7 14.8,4 33.4,3.9 47.5,-2.8 14.6,-6.9 22.7,-23 21,-39 -0.6,-5.2 -3.6,-23.2 3.6,-10.2 3.9,7.1 4.2,18.7 3.3,26.6 -4.3,37.5 -42.3,51.5 -75,42.5 -16.8,-4.6 -28.9,-17 -37.9,-31.6 -2.1,-3.4 -4,-6.9 -5.9,-10.4 -0.8,-1.4 -1.4,-3.4 -2.4,-4.6 -3.9,-4.8 -0.1,-2.1 -4.2,-2.8 -6.5,-0.9 -16.6,4 -21.4,7.9 -13,10.6 -20.2,27.6 -30.2,41 -10.6,14.2 -24.1,26.9 -37.6,38.3 q 22.95,23.55 45.9,47 c 3.2,-3.5 9.2,-11.5 10,-16.2 0.5,-2.7 -1.7,-11.8 5.1,-7.8 4.6,2.7 6.3,14.3 7.8,19.1 2.2,7.3 5.9,14.2 8.4,21.5 4.5,13.5 10,26.8 14.6,40.4 1.9,5.5 7.2,12.4 2.1,17 -7.8,7.1 -10.1,-6.9 -12.1,-12.2 -2.9,4 -2.5,10.4 -4,15.1 -0.9,2.8 -3.6,7.2 -3.6,10 0.2,4.8 4.5,6.2 8.4,8.9 7.3,5 14.7,9.8 21.4,15.6 a 39.66,39.66 0 0 1 7.4,7.9 c 1.8,2.7 2.3,8.8 4.3,10.7 2.6,2.5 12,0.7 17,1.3 8.3,0.9 16.8,3.9 24.9,6 14.3,3.8 29,9.2 44,11.2 14.7,2 28.5,1 43.2,-1.6 8,-1.4 16.6,-3.2 23.9,-7 8.4,-4.4 15.9,-11.5 23.8,-16.9 3.5,-2.4 7.1,-4.7 10.7,-6.9 4.8,-3 3.6,-2.4 3.9,-7.2 0.4,-5.6 2.7,-16.3 -1,-21.2 -1.6,-2.1 -6.3,-3.6 -8.6,-5.1 -3.3,-2.2 -6.2,-4.8 -9.7,-6.5 -3.8,-1.9 -3.9,-0.4 -5.7,-5.1 -1.6,-4.3 -2.7,-8.8 -4.2,-13.2 -6.8,-19.9 -8.5,-40.1 -11.4,-60.8 -1.3,-9.6 -4.5,-22.8 -0.9,-32.2 5,-13.1 9.3,5.2 10.3,9.9 4.8,-8.3 7.6,-17.4 12.6,-25.6 2.9,-4.8 4.4,-7.2 6,-12.4 0.7,-2.1 0.9,-3.9 2.3,-5.6 3,-3.7 3.4,-1.6 6.5,-1.7 9.8,-0.3 19.3,0 29.1,0.4 5.4,0.2 10.8,0.4 16.2,0.4 2.6,0 5.3,-0.1 8,0 a 32.187,32.187 0 0 1 4.3,0.3 c 2.9,1.4 4,0.2 3.3,-3.5 2.5,-5.3 2.4,-13.8 3.3,-19.6 0.9,-5.8 1.7,-11.7 2.5,-17.5 0.4,-3.1 3.8,-14.9 2,-17.5 -1.8,-2.5 -11.1,-2 -13.8,-2.4 -18.3,-3 -35.3,-10.6 -52.4,-16.7 -8.4,-3 -16.4,-7.1 -24.5,-10.9 -4.2,-1.9 -8.2,-5.9 -12.6,-7.2 -5.6,-1.6 -13,0.9 -18.6,1.9 a 281.331,281.331 0 0 1 -31.6,4 c -3.8,0.2 -11,1.3 -14.5,-1.3 -6.9,-5.3 1,-8.3 5.5,-9 19.9,-2.9 39.8,-4.6 59.9,-5.8 0.9,-0.1 4.4,-0.8 5.5,-0.4 2.6,0.8 1.6,1.8 3.1,2.6 a 44.308,44.308 0 0 0 9.9,3.7 c 10.5,2.8 21.1,7.5 31.7,11.2 19,6.6 41.7,17.2 60.7,15.3 4.7,-0.5 8.5,-1 13.4,-0.6 5.7,0.6 9.1,3.5 13.5,4.4 5.9,1.1 14.4,0.3 20.6,0.5 5.9,0.2 11.9,0.5 17.8,0.5 a 154.628,154.628 0 0 1 -11.3,-31.6 c -1.6,-6.1 -4,-11.7 -3,-18.2 a 33.213,33.213 0 0 1 3,-8.7 c 2,-4.2 2.6,-3.3 3.3,-7.9 1,-6.3 -0.4,-13 0.3,-19.4 0.8,-6.5 5.7,-12.3 6.3,-18.6 0.3,-3.3 -1.6,-6 -1,-9.6 0.5,-3.2 2.4,-6.6 4.1,-9.3 4,-6.3 8.8,-9.8 15.5,-12.4 5.4,-2.1 12.3,-3.9 17.7,-0.6 5.6,3.4 5.2,10.2 7.8,15.2 5.7,10.7 18.9,20.3 29.4,25.8 9.7,5 20.1,8.2 30.4,11.5 6.3,2 12.8,3.4 19,5.7 4.5,1.6 11.7,5.6 16.3,3.2 4,-2.1 8.6,-8.6 12.5,-11.5 4.6,-3.5 10.7,-6.9 16.5,-3.9 5.8,3 5.3,14.3 9.8,16.4 1.6,0.7 6.2,-1.4 8.3,-1.1 3.4,0.5 5.8,2.7 7.9,5.3 7.7,9.8 10.1,25.4 10.4,37.5 0.2,6 0,13.6 -3.7,18.7 -4.3,6 -12.4,6.1 -18,10.3 -4.4,3.4 -7.5,8.9 -12,12.5 -2.8,2.2 -3.8,0.5 -5,4 -0.7,2.2 0.8,6.6 1.2,8.8 2.7,13.4 7.9,25.7 12.8,38.5 a 90.125,90.125 0 0 1 5.3,18.4 c 0.7,4.2 -0.1,7.8 0.2,11.8 0.2,2.9 1.5,5.3 1.2,8.3 -0.6,6.2 -3.9,11.7 -6.1,17.2 -2.4,6.2 0.9,17 3.4,23.5 5.9,15.4 14.2,31 21.6,45.9 7.2,14.6 12.6,30.1 21.1,44.1 8.2,13.6 17.8,26.9 27.2,39.8 5.2,7.2 10.7,14 15.4,21.5 1,1.6 8,15.2 9.9,14.8 -2.2,-23.7 0,-48.4 1,-72.1 1.2,-29.7 -2.5,-56.6 -10.9,-84.9 -2,-6.6 -3.7,-13.4 -5.1,-20.2 -1,-4.7 -3.7,-8.6 3,-6.6 11,3.4 20.8,24.3 26.4,33.3 12.6,20.3 23.1,47.4 24.5,71.2 a 367.25,367.25 0 0 1 -2.7,68.8 196.785,196.785 0 0 1 -7.3,34.9 140.849,140.849 0 0 1 -6.5,16.7 c -1,2.3 -3.3,4.8 -3.7,7.3 -0.6,3.9 2.3,9.3 3,13.2 a 158.117,158.117 0 0 1 2.1,38.9 70,70 0 0 1 -3.7,19.7 c -2.9,8.3 -1.5,14.7 -0.3,23.2 1.3,9.2 2.5,30 -7,35.2 -0.7,-0.1 -1.3,-0.1 -2,-0.2 -1.7,-2 -3.2,-1.8 -4.5,0.3 -2.5,0.8 -4.9,2.9 -7.5,3.8 -6,2.1 -12.5,2.2 -18.8,3.1 -12.3,1.8 -24.6,4.9 -36.6,5.3 a 207.8,207.8 0 0 1 -43.2,-2.6 c -2.9,-0.5 -6.3,-1.9 -9.2,-2.2 -3.9,-0.4 -6.7,2.3 -10.7,1.6 -6.3,-1 -10.2,-7.6 -10.7,-13 -1.3,-17.4 8.3,-25.3 24.1,-28.4 -10.2,-14.6 -21.9,-26.5 -24.6,-45.2 -2.7,-18.4 3.1,-39.7 13.6,-54.4 10.1,-14.1 27.2,-23.6 45,-20 8.2,1.7 47,13.1 39.5,26.1 -1.7,-5.9 -11.9,-4.8 -16.8,-5.7 -8.2,-1.4 -16.4,-3.6 -24.7,-3.1 -16.4,0.9 -32.2,10.5 -40.1,25.2 -9.1,16.9 -5,33.7 6,48.2 10.1,13.2 20.4,27 33.9,36.6 -2.6,4.2 -1.7,5.5 -6.9,4.7 -3.6,-0.5 -6.9,-3.3 -10.5,-4 -7.5,-1.4 -19.2,4.7 -23.8,10.8 -2.7,3.6 -2.6,5.4 2.4,7.6 3.7,1.6 9.6,0.8 13.5,1.2 a 299.694,299.694 0 0 0 30,1.1 c 17.2,-0.1 33.2,-2.8 50.3,-4.6 7.6,-0.8 15.4,0.1 22.8,-2.7 10,-3.8 7.6,-14.8 6.3,-23.8 -1.3,-8.9 0,-15.7 1.4,-24.5 0.6,-3.8 1.7,-8.2 0.9,-12.1 -0.9,-4.6 -2.6,-6.6 -2.4,-11.7 a 180.5,180.5 0 0 0 -6.3,-54.7 c -10.4,-38 -35.9,-67.9 -57.1,-100.2 -6,-9.1 -12.3,-17.7 -17.1,-27.6 -4.5,-9.3 -7.6,-19.2 -12.1,-28.6 -9.9,-20.7 -19.3,-41.9 -25.1,-64.2 -6.6,2.6 -13.6,6.4 -20.6,7.3 -8,1 -16.5,-5.4 -21.5,-11.1 -11.4,-12.9 -14.1,-30.4 -13.2,-47 a 143.389,143.389 0 0 1 1.4,-14.7 c 0.6,-3.2 4.3,-10.8 3.4,-13.7 -0.9,-3.1 -6.2,-5.9 -7.8,-9 -2.1,-4 -2.3,-9.1 -2.2,-13.4 0.1,-4 2.3,-23.5 8.6,-15.5 3.6,4.6 -1.7,21.8 2,24.2 3.3,2.1 7.9,-0.5 11.3,4.4 3.7,5.2 1.7,11.7 0.4,17.2 -2.7,11.5 -5.2,23.9 -5.1,35.7 0.1,10.8 2,24.3 13.7,28.7 5.9,2.2 10.4,0.7 14.9,-3.4 1,-1.2 2.1,-2.3 3.1,-3.4 q 1.5,-2.55 4.5,-0.6 c 1.5,-1.2 3.7,-9.3 4.4,-11.1 9.1,-22.3 -5.2,-47.9 -10.5,-69.8 -3.2,-13.4 -6,-26.8 0.5,-39.7 1.1,-2.1 4,-3.9 2.2,-6.9 -0.5,-0.8 -4.8,-1.2 -5.9,-2.1 -3.4,-3 -2.7,-8.5 -2.7,-12.5 -7.8,2.4 -10.1,-3.7 -9.1,-11.1 -5.8,0.9 -9.9,2.7 -12,-4 -1.9,-6 1,-12.1 2.9,-17.7 -27,-2.9 -56.1,-6.6 -77.7,-25.2 a 70.73,70.73 0 0 1 -13.4,-16.4 c -0.7,-1.1 -3.8,-8.7 -4.8,-9.1 -3.1,-1.2 -5.7,4.8 -8.4,6.3 -2.4,1.3 -5.9,2.1 -8.6,2.9 -2.5,0.8 -11.5,0.9 -13.1,2.2 -4,3.3 -3.7,22.4 -3.7,26.8 a 106.206,106.206 0 0 0 9.6,44.4 c 5.9,13.1 15,31.1 26.9,39.7 a 13.632,13.632 0 0 0 9.5,3.1 c 2.7,-0.1 5.4,-2 8.2,-1 7.2,2.5 4.6,7.5 -0.9,9.8 -15.7,6.7 -29,-8.1 -38.1,-18.4 -2.7,12.3 9.7,26.8 16.2,36.8 4.2,6.4 8.3,12.8 12.2,19.3 2.9,4.7 8.5,13.4 -1.5,9.8 -4.8,25.4 -18.1,47.7 -24.9,72.4 -7,25.4 -13,54.3 -13,80.7 5.3,-3.7 8,-20.5 15.1,-7.6 0.8,1.4 0.5,3.7 1.5,4.9 1.4,1.7 3.1,1.2 5.3,2.4 3.4,1.9 5.6,5.7 2.6,9 3.9,-0.9 8.1,-0.4 8.9,4.2 0.5,2.6 -3.4,14.7 -6.2,15.7 -8.7,3 -18.4,-14.4 -20.7,-19.9 -5.4,5.5 -11.7,9.7 -16.7,0.8 -3.7,-6.6 -1.6,-16.5 -1,-23.7 1.1,-14.4 2.4,-28.5 4.5,-42.8 3.9,-26.8 13.8,-50.6 26,-74.8 3.4,-6.6 7.1,-13.4 10.1,-20.2 4.5,-10.2 -2.5,-7.8 -9.5,-6.3 a 306.4,306.4 0 0 1 -41.4,6.2 c -7.1,0.5 -16.3,0.9 -23.1,2.9 -4.8,1.5 -4,0.4 -5.9,5.6 a 23.518,23.518 0 0 1 -3.4,6.7 c -7.8,10.1 -28,8.4 -39.1,7.7 0.7,-4.3 1.3,-8.5 2,-12.8 a 122.578,122.578 0 0 1 -27.6,3.3 c -4.8,-0.1 -9.8,-0.8 -14.6,-1.2 -3.5,-0.3 -10.1,-2.8 -13.4,-1.8 -3.8,1.1 -9.6,14.9 -11.8,19.4 -4.1,8.4 -11.4,17.6 -14,26.4 -2.3,7.8 2.4,21.3 3.9,29 2.1,11.2 4.1,22.5 7.6,33.3 2.6,7.9 5.6,18.8 13.5,22.7 7.9,3.9 13.6,6.1 22.1,5.3 15,-1.4 31,0.9 45.9,3.8 15.3,3 29.3,4.4 43.8,9.7 32.9,12.2 53.9,49.7 41.5,84 -7.1,19.8 -18.9,34.4 -36.2,46.7 -8.8,6.2 -19.2,11.3 -28.8,16.1 -4.4,2.2 -8.8,4.9 -13.3,6.8 -3.3,1.4 -9,4.7 -12.5,5.1 4,1.9 7.5,0.1 11.6,-0.5 5.9,-0.8 11.8,-1 17.7,-1.7 9.1,-1.1 18.2,-2 27.3,-3.1 a 94.86,94.86 0 0 1 24.4,-0.2 c 3.7,0.5 9.4,1.6 12.7,3.4 2.6,1.4 5,4.7 7.9,6.3 3.1,-12.8 1.7,-28.5 1.8,-41.6 0.1,-10.7 0.6,-21.2 1.6,-31.8 1.1,-11.9 -6.2,-25.4 -8.8,-37.1 -2.5,-10.9 -9.2,-24.7 -6.8,-36.1 3.1,-14.4 11.3,11.4 12.4,15.1 3.5,11.5 7.6,22.8 11.5,34.2 4.6,13.6 9.3,26.7 16,39.4 5.6,10.6 12,23 23.6,28.1 -0.9,-15.6 -2,-30 -8.5,-44.3 -6.1,-13.6 -15.5,-25.7 -19.6,-40.3 -2,-7.2 -2.3,-14.7 -2.4,-22.1 -0.1,-5 0.2,-11.8 5.6,-6.4 4.3,4.3 5.1,18 7,23.8 0.9,2.8 2.2,5.3 3.1,8.1 0.4,1.2 3.5,7.2 3.5,8 2.9,9.5 9.8,18.5 14.6,27.2"
           id="Fill-1"
           inkscape:connector-curvature="0"
           style="fill-rule:evenodd;fill:#ffffff;fill-opacity:0.96237475" />
        <path
           d="m 339.441,152.691 c 0.3,3.6 2.4,13.1 -0.3,16 -3.6,3.8 -5.3,-1.1 -6.8,-5 -3.2,-8.1 -4.9,-23.8 1.6,-30.6 6.7,-7.1 19.9,-7.2 27,-14.3 2.9,-2.8 2.6,-2.2 2.3,-6.6 -0.1,-2.5 -1.8,-5.8 -2.5,-8 -2,-5.8 -4.2,-11.6 -6.4,-17.4 -3.7,1.7 -9,6.9 -12.7,2.5 -3.4,-4 2.2,-10.6 6.1,-11.8 -2,-4.5 -11.6,-3.6 -13.5,-10.2 -1.6,-5.7 3,-3.4 4,-5.7 1.2,-2.6 -1.2,-6.2 0,-8.6 4.3,-8.4 9.1,7.1 11.2,9.8 4,5.2 10.9,6.3 11.5,14.1 0.4,4.8 0,7 2,11.7 1.8,4.3 4,8.5 5.5,13 2.3,6.7 5.8,19 1.4,25.5 -3.8,5.5 -13,9.7 -19,12 -3,1.2 -7.1,1.9 -9.6,4.2 -3.1,3 -2.1,4.9 -1.8,9.4"
           id="Fill-8"
           inkscape:connector-curvature="0"
           style="fill-rule:evenodd;fill:#ffffff" />
        <path
           d="m 650.041,355.991 c -0.7,-1.1 -1.4,-2.1 -2,-3.2 -4.7,5.1 -10,7.1 -14.8,0.7 -4.9,-6.6 -3.1,-16.5 -1.2,-23.7 1,-3.7 6,-18.4 9.2,-7.2 0.7,2.5 -1.7,7.9 -2.1,10.4 -0.8,4.7 -1.5,9.3 -0.9,14.1 5.5,-5 8.3,-17.5 13.9,-4.5 2,4.7 2.3,12.5 7.7,5.3 2.9,-3.8 3.1,-10.9 4.4,-15.5 9.3,2.2 7.6,15.9 4.5,22.6 -4.9,10.6 -11.6,7.2 -18.7,1"
           id="Fill-14"
           inkscape:connector-curvature="0"
           style="fill-rule:evenodd;fill:#ffffff" />
        <path
           d="m 682.441,117.591 c 3.3,5.5 -2.9,15.5 -4.1,21.2 5.5,-0.6 19.2,-14 23,-11.8 8,4.6 -8.9,20.5 -12.1,22.8 -26,18.7 -21.3,-35.2 -6.8,-32.2"
           id="Fill-16"
           inkscape:connector-curvature="0"
           style="fill-rule:evenodd;fill:#ffffff" />
        <path
           d="m 649.841,178.791 c 9.7,-2.7 22.8,14.7 16.5,23.3 -4.5,6.2 -10.1,2.6 -11.5,-2.8 -0.7,-2.8 -0.1,-6.1 -1,-9.2 -1.2,-3.8 -2.7,-7.5 -4,-11.3"
           id="Fill-28"
           inkscape:connector-curvature="0"
           style="fill-rule:evenodd;fill:#ffffff" />
        <path
           d="m 351.541,103.791 c 7.4,6.2 -7.7,21.3 -15.2,9.5 -2.1,-3.3 -2.5,-6.2 0.6,-7.4 1.6,-0.6 5.2,1.4 7.4,1 2.4,-0.4 5.1,-2.1 7.2,-3.1"
           id="Fill-30"
           inkscape:connector-curvature="0"
           style="fill-rule:evenodd;fill:#ffffff" />
        <path
           d="m 326.241,78.991 c -2.9,-3.6 -10.9,-25.5 -0.9,-20.6 5,2.4 9.1,21.2 0.9,20.6"
           id="Fill-32"
           inkscape:connector-curvature="0"
           style="fill-rule:evenodd;fill:#ffffff" />
        <path
           d="m 655.341,551.291 c -0.3,-2.8 -0.6,-5.5 -0.8,-8.3 3.7,1.9 11.1,3.7 12.3,7.9 2.4,7.9 -8.8,1.6 -11.5,0.4"
           id="Fill-36"
           inkscape:connector-curvature="0"
           style="fill-rule:evenodd" />
        <path
           d="m 762.141,216.991 c -2.2,-3 -9,-27.7 -3.1,-27.1 1.1,9 1.3,18.3 3.1,27.1"
           id="Fill-38"
           inkscape:connector-curvature="0"
           style="fill-rule:evenodd" />
        <path
           d="m 669.941,495.591 c -4.8,-8.7 -11.7,-17.7 -14.9,-27.1 7.4,5.9 13.1,18 14.9,27.1"
           id="Fill-40"
           inkscape:connector-curvature="0"
           style="fill-rule:evenodd" />
        <path
           d="m 868.541,475.491 c 0.3,3.1 0.6,6.3 0.9,9.4 -4.4,1.2 -1.1,-8.3 -0.9,-9.4"
           id="Fill-42"
           inkscape:connector-curvature="0"
           style="fill-rule:evenodd" />
        <path
           d="m 655.141,468.491 a 14.881,14.881 0 0 1 -3.5,-8 c 1.2,2.7 2.3,5.4 3.5,8"
           id="Fill-44"
           inkscape:connector-curvature="0"
           style="fill-rule:evenodd;fill:#ffffff" />
        <path
           d="m 680.241,610.491 c 0.1,-2.8 0.2,-5.6 0.2,-8.4 -0.1,2.8 -0.1,5.6 -0.2,8.4"
           id="Fill-46"
           inkscape:connector-curvature="0"
           style="fill-rule:evenodd" />
        <path
           d="m 352.141,157.691 c 1.9,0.2 3.7,0.5 5.6,0.7 -1.5,0.6 -5,1.6 -5.6,-0.7"
           id="Fill-48"
           inkscape:connector-curvature="0"
           style="fill-rule:evenodd" />
        <path
           d="m 722.741,639.791 c 1.9,-0.3 3.9,-1 5.8,0.1 -2,0 -3.9,0 -5.8,-0.1"
           id="Fill-50"
           inkscape:connector-curvature="0"
           style="fill-rule:evenodd" />
        <path
           d="m 667.441,576.791 c 0,2.1 0.1,4.1 0.1,6.2 0,-2.1 0,-4.2 -0.1,-6.2"
           id="Fill-52"
           inkscape:connector-curvature="0"
           style="fill-rule:evenodd" />
        <path
           d="m 707.441,544.591 c -0.1,2.2 -0.2,4.4 -0.4,6.6 0.1,-2.2 0.3,-4.4 0.4,-6.6"
           id="Fill-54"
           inkscape:connector-curvature="0"
           style="fill-rule:evenodd" />
        <path
           d="m 681.141,553.191 c -0.1,-1.9 -0.2,-3.8 -0.3,-5.8 0.1,2 0.2,3.9 0.3,5.8"
           id="Fill-56"
           inkscape:connector-curvature="0"
           style="fill-rule:evenodd" />
        <path
           d="m 738.541,570.091 q -0.152,2.55 -0.3,5.1 0.151,-2.4 0.3,-5.1"
           id="Fill-58"
           inkscape:connector-curvature="0"
           style="fill-rule:evenodd" />
        <path
           d="m 391.441,613.291 a 5.857,5.857 0 0 1 -5.6,0 h 5.6"
           id="Fill-60"
           inkscape:connector-curvature="0"
           style="fill-rule:evenodd" />
        <path
           d="m 583.941,97.091 c 0,1.7 0.1,3.4 0.1,5.1 -0.1,-1.7 -0.1,-3.4 -0.1,-5.1"
           id="Fill-62"
           inkscape:connector-curvature="0"
           style="fill-rule:evenodd" />
        <path
           d="m 397.141,143.191 c -1.9,0.1 -3.9,0.3 -5.8,0.4 1.9,-0.1 3.9,-0.3 5.8,-0.4"
           id="Fill-64"
           inkscape:connector-curvature="0"
           style="fill-rule:evenodd" />
        <path
           d="m 795.041,149.691 v -5 a 4.966,4.966 0 0 1 0,5"
           id="Fill-66"
           inkscape:connector-curvature="0"
           style="fill-rule:evenodd" />
        <path
           d="m 339.441,152.691 c -0.1,-1.8 -0.2,-3.5 -0.3,-5.3 0.1,1.8 0.2,3.5 0.3,5.3"
           id="Fill-68"
           inkscape:connector-curvature="0"
           style="fill-rule:evenodd" />
        <g
           id="Group-72">
          <path
             d="m 812.741,675.866 h 3.9 a 25.388,25.388 0 0 1 -3.9,0"
             id="Fill-70"
             inkscape:connector-curvature="0"
             style="fill-rule:evenodd" />
        </g>
        <path
           d="m 300.641,0.591 c -1.7,0.1 -3.4,0.3 -5.1,0.4 1.7,-0.1 3.4,-0.3 5.1,-0.4"
           id="Fill-73"
           inkscape:connector-curvature="0"
           style="fill-rule:evenodd" />
        <path
           d="m 640.341,191.091 c -1.7,-0.2 -3.3,-0.3 -5,-0.5 1.6,0.1 3.3,0.3 5,0.5"
           id="Fill-77"
           inkscape:connector-curvature="0"
           style="fill-rule:evenodd;fill:#ffffff" />
        <path
           d="m 716.341,650.991 c 0.1,-1.4 0.2,-2.8 0.3,-4.1 -0.1,1.3 -0.2,2.7 -0.3,4.1"
           id="Fill-79"
           inkscape:connector-curvature="0"
           style="fill-rule:evenodd" />
        <path
           d="m 535.241,173.391 h -4.9 a 5.027,5.027 0 0 1 4.9,0"
           id="Fill-81"
           inkscape:connector-curvature="0"
           style="fill-rule:evenodd" />
        <path
           d="m 315.441,0.991 c -1.7,-0.1 -3.4,0.8 -4.9,-0.5 1.6,0.2 3.3,0.4 4.9,0.5"
           id="Fill-83"
           inkscape:connector-curvature="0"
           style="fill-rule:evenodd" />
        <path
           d="m 270.641,163.791 c -1.6,0.1 -3.2,0.3 -4.8,0.4 1.6,-0.1 3.2,-0.3 4.8,-0.4"
           id="Fill-85"
           inkscape:connector-curvature="0"
           style="fill-rule:evenodd" />
        <path
           d="m 370.841,611.891 c -1.7,0.2 -3.4,0.3 -5,0.5 1.7,-0.2 3.4,-0.4 5,-0.5"
           id="Fill-87"
           inkscape:connector-curvature="0"
           style="fill-rule:evenodd" />
        <path
           d="m 412.641,142.191 c -1.6,0 -3.3,0.1 -4.9,0.1 1.6,-0.7 3.2,-1.3 4.9,-0.1"
           id="Fill-89"
           inkscape:connector-curvature="0"
           style="fill-rule:evenodd" />
        <path
           d="m 869.141,469.091 c -0.2,1.7 -0.4,3.4 -0.5,5.1 0.2,-1.7 0.4,-3.4 0.5,-5.1"
           id="Fill-93"
           inkscape:connector-curvature="0"
           style="fill-rule:evenodd" />
        <path
           d="m 657.141,579.491 c -0.1,-1.5 -0.2,-2.9 -0.4,-4.4 0.1,1.5 0.2,3 0.4,4.4"
           id="Fill-95"
           inkscape:connector-curvature="0"
           style="fill-rule:evenodd" />
        <path
           d="m 107.341,566.091 c -0.3,1.5 -1.4,1.7 -3.2,0.9 z"
           id="Fill-97"
           inkscape:connector-curvature="0"
           style="fill-rule:evenodd" />
        <path
           d="m 718.141,566.791 c -0.1,-1.3 -0.2,-2.5 -0.3,-3.8 0.1,1.2 0.2,2.5 0.3,3.8"
           id="Fill-99"
           inkscape:connector-curvature="0"
           style="fill-rule:evenodd" />
        <path
           d="m 375.641,145.191 c -1.4,0.2 -2.8,0.4 -4.1,0.6 1.4,-0.2 2.7,-0.4 4.1,-0.6"
           id="Fill-101"
           inkscape:connector-curvature="0"
           style="fill-rule:evenodd;fill:#999999" />
        <path
           d="m 82.041,384.991 c -0.1,1.2 -0.3,2.5 -0.4,3.7 0.1,-1.2 0.2,-2.4 0.4,-3.7"
           id="Fill-107"
           inkscape:connector-curvature="0"
           style="fill-rule:evenodd" />
        <path
           d="m 905.941,470.291 c -0.1,-1.2 -0.1,-2.3 -0.2,-3.5 0.1,1.2 0.1,2.3 0.2,3.5"
           id="Fill-109"
           inkscape:connector-curvature="0"
           style="fill-rule:evenodd" />
        <path
           d="m 195.541,624.391 c -1.4,0 -2.8,0 -4.3,-0.1 a 3.944,3.944 0 0 1 4.3,0.1"
           id="Fill-111"
           inkscape:connector-curvature="0"
           style="fill-rule:evenodd" />
        <path
           d="m 361.041,78.691 c 0,-1.2 0,-2.3 -0.1,-3.5 0.8,1.2 -21.5,77.5 0.1,3.5"
           id="Fill-113"
           inkscape:connector-curvature="0"
           style="fill-rule:evenodd;fill:#ffffff"
           sodipodi:nodetypes="ccc" />
        <path
           d="m 247.641,63.891 c 0.1,-1.2 0.2,-2.3 0.3,-3.5 -0.1,1.2 -0.2,2.3 -0.3,3.5"
           id="Fill-115"
           inkscape:connector-curvature="0"
           style="fill-rule:evenodd" />
        <path
           d="m 717.241,468.191 c 0,-1.3 -0.1,-2.5 -0.1,-3.8 0,1.3 0.1,2.5 0.1,3.8"
           id="Fill-117"
           inkscape:connector-curvature="0"
           style="fill-rule:evenodd" />
        <path
           d="m 708.141,533.991 c 0,1.2 -0.1,2.4 -0.1,3.6 0,-1.2 0.1,-2.4 0.1,-3.6"
           id="Fill-119"
           inkscape:connector-curvature="0"
           style="fill-rule:evenodd" />
        <path
           d="m 111.241,650.391 a 24.369,24.369 0 0 1 2.7,0.1 24.369,24.369 0 0 0 -2.7,-0.1"
           id="Fill-123"
           inkscape:connector-curvature="0"
           style="fill-rule:evenodd" />
        <path
           d="m 648.741,544.991 c -8.7,-6.7 -16.2,-16.7 -18,-27.4 3.7,4.2 6.9,8.9 10.6,13.1 1.5,1.7 3.3,3.1 4.7,4.8 3.3,3.9 2.7,4 2.7,9.5"
           id="Fill-129"
           inkscape:connector-curvature="0"
           style="fill-rule:evenodd;fill:#f2f2f2" />
        <path
           d="m 618.341,499.691 c -4.2,-9.6 -7.8,-21.2 -7,-31.8 2.8,9.6 9.4,21.7 7,31.8"
           id="Fill-131"
           inkscape:connector-curvature="0"
           style="fill-rule:evenodd;fill:#ffffff" />
        <path
           d="m 632.241,556.091 c -0.1,2.8 -0.1,5.6 -0.2,8.3 0.1,-2.8 0.2,-5.6 0.2,-8.3"
           id="Fill-133"
           inkscape:connector-curvature="0"
           style="fill-rule:evenodd" />
        <path
           d="m 82.141,631.691 c 2.8,0.2 5.7,0.3 8.5,0.5 -2.8,0 -5.7,0.7 -8.5,-0.5"
           id="Fill-135"
           inkscape:connector-curvature="0"
           style="fill-rule:evenodd" />
        <path
           d="m 515.441,271.791 c -1.6,-0.1 -3.2,-0.2 -4.8,-0.2 1.6,0.1 3.2,0.2 4.8,0.2"
           id="Fill-139"
           inkscape:connector-curvature="0"
           style="fill-rule:evenodd" />
        <path
           d="m 507.141,261.091 a 1.9,1.9 0 0 0 -2.2,-2 c 2.7,-1.5 3.5,-0.8 2.2,2"
           id="Fill-143"
           inkscape:connector-curvature="0"
           style="fill-rule:evenodd" />
        <path
           d="m 588.641,368.191 0.3,-5.1 -0.3,5.1"
           id="Fill-145"
           inkscape:connector-curvature="0"
           style="fill-rule:evenodd" />
        <path
           d="m 122.541,632.891 c 1.9,-0.1 3.8,-0.3 5.8,-0.4 -2,0.1 -3.9,0.3 -5.8,0.4"
           id="Fill-147"
           inkscape:connector-curvature="0"
           style="fill-rule:evenodd" />
        <path
           d="m 856.541,655.091 h 5 a 4.541,4.541 0 0 1 -5,0"
           id="Fill-153"
           inkscape:connector-curvature="0"
           style="fill-rule:evenodd" />
        <path
           d="m 157.941,424.791 c -1.1,0 -2.3,0.1 -3.4,0.1 1.2,0 2.3,-0.1 3.4,-0.1"
           id="Fill-155"
           inkscape:connector-curvature="0"
           style="fill-rule:evenodd" />
        <path
           d="m 757.141,175.591 c 1.1,1 -0.3,3.4 -1.6,2.6 0.5,-0.9 1.1,-1.8 1.6,-2.6"
           id="Fill-157"
           inkscape:connector-curvature="0"
           style="fill-rule:evenodd" />
        <path
           d="m 235.641,529.091 c 0,-1.5 0.1,-2.9 0.1,-4.4 0,1.5 -0.1,2.9 -0.1,4.4"
           id="Fill-159"
           inkscape:connector-curvature="0"
           style="fill-rule:evenodd" />
        <path
           d="m 617.041,529.891 c 0.1,-1.5 0.2,-3 0.2,-4.6 -0.1,1.5 -0.2,3.1 -0.2,4.6"
           id="Fill-161"
           inkscape:connector-curvature="0"
           style="fill-rule:evenodd" />
        <path
           d="m 883.141,371.491 c 0.1,1.5 0.1,3 0.2,4.6 -0.1,-1.6 -0.1,-3.1 -0.2,-4.6"
           id="Fill-163"
           inkscape:connector-curvature="0"
           style="fill-rule:evenodd" />
        <path
           d="m 369.241,543.791 c 1.7,0.1 3.4,0.3 5.1,0.4 -1.7,-0.1 -3.4,-0.2 -5.1,-0.4"
           id="Fill-165"
           inkscape:connector-curvature="0"
           style="fill-rule:evenodd" />
        <path
           d="m 602.841,427.091 c 0.1,-1.5 0.2,-3 0.2,-4.5 0,1.5 -0.1,3 -0.2,4.5"
           id="Fill-167"
           inkscape:connector-curvature="0"
           style="fill-rule:evenodd" />
        <path
           d="m 306.841,455.791 c 1.7,0.2 3.4,0.3 5.1,0.5 -1.7,-0.1 -3.4,-0.3 -5.1,-0.5"
           id="Fill-169"
           inkscape:connector-curvature="0"
           style="fill-rule:evenodd" />
        <path
           d="m 553.541,218.491 c -0.1,1.4 -0.1,2.8 -0.2,4.2 0.1,-1.4 0.1,-2.8 0.2,-4.2"
           id="Fill-173"
           inkscape:connector-curvature="0"
           style="fill-rule:evenodd" />
        <path
           d="m 577.741,561.191 c 1.7,-1.2 3.3,-0.4 5,0.1 -1.7,0 -3.3,0 -5,-0.1"
           id="Fill-175"
           inkscape:connector-curvature="0"
           style="fill-rule:evenodd" />
        <path
           d="m 381.241,156.991 c -1.1,0 -2.2,-0.1 -3.3,-0.1 1.1,0 2.2,0 3.3,0.1"
           id="Fill-177"
           inkscape:connector-curvature="0"
           style="fill-rule:evenodd" />
        <path
           d="m 649.241,587.191 -0.3,-4.2 0.3,4.2"
           id="Fill-179"
           inkscape:connector-curvature="0"
           style="fill-rule:evenodd" />
        <path
           d="m 538.841,565.591 c 1.4,-0.2 2.7,-0.4 4.1,-0.5 -1.4,0.1 -2.7,0.3 -4.1,0.5"
           id="Fill-185"
           inkscape:connector-curvature="0"
           style="fill-rule:evenodd" />
        <path
           d="m 479.841,394.891 h 4.4 a 4.58,4.58 0 0 1 -4.4,0"
           id="Fill-187"
           inkscape:connector-curvature="0"
           style="fill-rule:evenodd" />
        <path
           d="m 556.441,251.291 h -2.6 a 11.3,11.3 0 0 1 2.6,0"
           id="Fill-189"
           inkscape:connector-curvature="0"
           style="fill-rule:evenodd" />
        <path
           d="m 133.841,411.091 h 4.4 a 3.92,3.92 0 0 1 -4.4,0"
           id="Fill-193"
           inkscape:connector-curvature="0"
           style="fill-rule:evenodd" />
        <path
           d="m 883.341,413.591 c -0.1,1.1 -0.2,2.3 -0.3,3.4 0.1,-1.2 0.2,-2.3 0.3,-3.4"
           id="Fill-195"
           inkscape:connector-curvature="0"
           style="fill-rule:evenodd" />
        <path
           d="m 507.741,594.391 c 0.1,-1.2 0.3,-2.5 0.4,-3.7 -0.1,1.3 -0.2,2.5 -0.4,3.7"
           id="Fill-197"
           inkscape:connector-curvature="0"
           style="fill-rule:evenodd" />
        <path
           d="m 269.241,447.991 c 1.5,0 3,0 4.5,0.1 -1.5,1 -3,0.4 -4.5,-0.1"
           id="Fill-199"
           inkscape:connector-curvature="0"
           style="fill-rule:evenodd" />
        <path
           d="m 609.041,232.291 c 1.4,-0.2 2.9,-0.3 4.3,-0.5 -1.4,0.2 -2.8,0.3 -4.3,0.5"
           id="Fill-201"
           inkscape:connector-curvature="0"
           style="fill-rule:evenodd" />
        <path
           d="m 487.941,626.091 c 0.1,1.3 0.3,2.6 0.4,3.9 -0.1,-1.3 -0.3,-2.6 -0.4,-3.9"
           id="Fill-203"
           inkscape:connector-curvature="0"
           style="fill-rule:evenodd" />
        <path
           d="m 91.441,632.391 4.2,0.6 a 30.341,30.341 0 0 0 -4.2,-0.6"
           id="Fill-207"
           inkscape:connector-curvature="0"
           style="fill-rule:evenodd" />
        <path
           d="m 117.741,632.891 c 1.4,-1.1 2.8,-0.8 4.2,-0.1 -1.4,0.1 -2.8,0.1 -4.2,0.1"
           id="Fill-209"
           inkscape:connector-curvature="0"
           style="fill-rule:evenodd" />
        <path
           d="m 370.841,466.991 c 1.4,-0.2 2.7,-0.3 4.1,-0.5 -1.4,0.2 -2.8,0.3 -4.1,0.5"
           id="Fill-211"
           inkscape:connector-curvature="0"
           style="fill-rule:evenodd" />
        <path
           d="m 523.241,639.291 4.2,-0.6 -4.2,0.6"
           id="Fill-213"
           inkscape:connector-curvature="0"
           style="fill-rule:evenodd" />
        <path
           d="m 474.341,641.491 c 1.4,-0.2 2.9,-0.4 4.3,-0.5 -1.4,0.1 -2.9,0.3 -4.3,0.5"
           id="Fill-215"
           inkscape:connector-curvature="0"
           style="fill-rule:evenodd" />
        <path
           d="m 552.841,227.091 c -0.1,1.2 -0.1,2.3 -0.2,3.4 0.1,-1.2 0.1,-2.3 0.2,-3.4"
           id="Fill-217"
           inkscape:connector-curvature="0"
           style="fill-rule:evenodd" />
        <path
           d="m 217.041,501.491 c 0.1,-1.2 0.3,-2.4 0.4,-3.7 -0.1,1.3 -0.3,2.5 -0.4,3.7"
           id="Fill-219"
           inkscape:connector-curvature="0"
           style="fill-rule:evenodd" />
        <path
           d="m 541.841,197.291 c 0,-1.2 0.1,-2.4 0.1,-3.6 0,1.2 -0.1,2.4 -0.1,3.6"
           id="Fill-221"
           inkscape:connector-curvature="0"
           style="fill-rule:evenodd" />
        <path
           d="m 269.541,487.891 c 0.1,1.2 0.3,2.4 0.4,3.7 -0.2,-1.2 -0.3,-2.4 -0.4,-3.7"
           id="Fill-223"
           inkscape:connector-curvature="0"
           style="fill-rule:evenodd" />
        <path
           d="m 274.241,447.991 c 1.4,0.2 2.9,0.3 4.3,0.5 -1.4,-0.1 -2.8,-0.3 -4.3,-0.5"
           id="Fill-225"
           inkscape:connector-curvature="0"
           style="fill-rule:evenodd" />
        <path
           d="m 504.441,626.491 c 0.8,2.4 0.5,8 -1.8,9.7 -4.9,3.5 -5.3,-2.9 -6.3,-6.4 -2.7,-9.7 -7,-20.5 -8.1,-30.4 -0.3,-3.1 -0.5,-8.8 3.5,-9.8 3.9,-1 5.9,5.2 7.2,8.3 a 66.917,66.917 0 0 1 5.5,28.6"
           id="Fill-229"
           inkscape:connector-curvature="0"
           style="fill-rule:evenodd;fill:#ffffff" />
        <path
           d="m 504.441,626.491 c 0.1,-1.2 0.1,-2.5 0.2,-3.7 -0.1,1.2 -0.1,2.4 -0.2,3.7"
           id="Fill-231"
           inkscape:connector-curvature="0"
           style="fill-rule:evenodd" />
      </g>
    </g>
  </g>
</svg>
