<svg width="38" height="38" viewBox="0 0 38 38" fill="none" xmlns="http://www.w3.org/2000/svg">
<path d="M21.3001 0C12.3287 0 5.05509 7.27231 5.05509 16.2437C5.05509 19.4313 5.97298 22.4048 7.55939 24.9137C7.54773 24.9188 7.5363 24.9233 7.52462 24.9286L0.456299 31.9957L6.46062 38L13.7835 30.6759C13.7813 30.6656 13.7784 30.6553 13.7761 30.6449C16.0255 31.8226 18.5851 32.4886 21.3001 32.4886C30.2715 32.4886 37.5438 25.2151 37.5438 16.2437C37.5437 7.27231 30.2714 0 21.3001 0ZM21.3001 7.2161C26.2857 7.2161 30.3264 11.258 30.3264 16.2437C30.3264 21.2293 26.2857 25.2712 21.3001 25.2712C16.3144 25.2712 12.2725 21.2293 12.2725 16.2437C12.2725 11.258 16.3144 7.2161 21.3001 7.2161Z" fill="#06D6A0"/>
</svg>
